<svg width="32" height="32" viewBox="0 0 32 32" fill="none" xmlns="http://www.w3.org/2000/svg">
<g clip-path="url(#clip0_688:302)">
<path d="M16 0C11.6545 0 11.1096 0.0184186 9.40298 0.0959034C7.69641 0.173388 6.53731 0.44395 5.51921 0.839631C4.45165 1.24156 3.48455 1.8714 2.6853 2.6853C1.87134 3.4845 1.24148 4.45161 0.839633 5.51921C0.444587 6.53541 0.174024 7.70022 0.0959041 9.40298C0.017784 11.1057 0 11.6545 0 16C0 20.3455 0.0184192 20.8904 0.0959041 22.5964C0.173389 24.3023 0.444587 25.4627 0.839633 26.4808C1.24179 27.5482 1.87161 28.5153 2.6853 29.3147C3.48458 30.1284 4.45168 30.758 5.51921 31.1597C6.53541 31.5554 7.70022 31.826 9.40298 31.9035C11.1057 31.9809 11.6545 32 16 32C20.3455 32 20.8904 31.9816 22.597 31.9035C24.3036 31.8253 25.4627 31.5554 26.4808 31.1597C27.5483 30.758 28.5154 30.1284 29.3147 29.3147C30.1284 28.5153 30.7582 27.5482 31.1604 26.4808C31.5554 25.4646 31.826 24.2998 31.9035 22.5964C31.9809 20.893 32 20.3455 32 16C32 11.6545 31.9816 11.1096 31.9035 9.40298C31.8253 7.69641 31.5554 6.53668 31.1604 5.51921C30.7585 4.45161 30.1287 3.4845 29.3147 2.6853C28.5154 1.8714 27.5483 1.24156 26.4808 0.839631C25.4646 0.44395 24.2998 0.174023 22.597 0.0959034C20.8942 0.0177834 20.3455 0 16 0ZM16 2.88282C20.2725 2.88282 20.778 2.8987 22.4655 2.97618C24.0254 3.04732 24.8727 3.30772 25.4366 3.52683C26.1324 3.78303 26.7619 4.19216 27.2785 4.72404C27.8105 5.24056 28.2196 5.87001 28.4757 6.56589C28.6948 7.12988 28.9552 7.97713 29.0264 9.53699C29.1032 11.2239 29.1197 11.7301 29.1197 16.0025C29.1197 20.275 29.1032 20.7806 29.0264 22.4681C28.9552 24.0279 28.6948 24.8752 28.4757 25.4385C28.2194 26.1343 27.8103 26.7637 27.2785 27.2804C26.7618 27.812 26.1324 28.221 25.4366 28.477C24.8727 28.6961 24.0254 28.9571 22.4655 29.0283C20.7787 29.1051 20.2725 29.1216 16 29.1216C11.7275 29.1216 11.2213 29.1051 9.53445 29.0283C7.97459 28.9571 7.12734 28.6961 6.56335 28.477C5.8676 28.221 5.23818 27.812 4.7215 27.2804C4.1897 26.7637 3.78059 26.1343 3.52429 25.4385C3.30517 24.8752 3.04478 24.0279 2.97364 22.4681C2.89679 20.7806 2.88028 20.2744 2.88028 16.0025C2.88028 11.7307 2.89679 11.2239 2.97364 9.53699C3.04478 7.97713 3.30517 7.12988 3.52429 6.56589C3.78036 5.87001 4.1895 5.24056 4.7215 4.72404C5.23812 4.19216 5.86754 3.78303 6.56335 3.52683C7.12734 3.30772 7.97459 3.04732 9.53445 2.97618C11.222 2.8987 11.7275 2.88282 16 2.88282Z" fill="#202020"/>
<path d="M16 21.3334C14.5851 21.3334 13.2281 20.7713 12.2276 19.7708C11.2271 18.7703 10.665 17.4133 10.665 15.9984C10.665 14.5834 11.2271 13.2264 12.2276 12.2259C13.2281 11.2254 14.5851 10.6633 16 10.6633C17.4149 10.6633 18.7719 11.2254 19.7724 12.2259C20.7729 13.2264 21.335 14.5834 21.335 15.9984C21.335 17.4133 20.7729 18.7703 19.7724 19.7708C18.7719 20.7713 17.4149 21.3334 16 21.3334ZM16 7.78369C14.921 7.78369 13.8526 7.99622 12.8557 8.40915C11.8589 8.82208 10.9532 9.42732 10.1902 10.1903C9.4273 10.9533 8.82213 11.8591 8.40928 12.856C7.99643 13.8528 7.78397 14.9213 7.78406 16.0003C7.78406 18.1793 8.64966 20.269 10.1905 21.8098C11.7312 23.3506 13.821 24.2162 16 24.2162C17.0789 24.2162 18.1473 24.0037 19.1441 23.5908C20.1409 23.1779 21.0466 22.5727 21.8095 21.8098C22.5725 21.0469 23.1776 20.1412 23.5905 19.1444C24.0034 18.1476 24.2159 17.0792 24.2159 16.0003C24.216 14.9213 24.0036 13.8528 23.5907 12.856C23.1779 11.8591 22.5727 10.9533 21.8098 10.1903C21.0468 9.42732 20.1411 8.82208 19.1443 8.40915C18.1474 7.99622 17.079 7.78369 16 7.78369Z" fill="#202020"/>
<path d="M26.4611 7.45904C26.4611 7.71117 26.4114 7.96084 26.3149 8.19378C26.2184 8.42672 26.077 8.63838 25.8987 8.81666C25.7204 8.99495 25.5088 9.13637 25.2758 9.23286C25.0429 9.32935 24.7932 9.37901 24.5411 9.37901C24.2888 9.37934 24.0389 9.32992 23.8057 9.23358C23.5725 9.13723 23.3605 8.99585 23.182 8.81752C23.0035 8.63919 22.8619 8.42742 22.7654 8.19432C22.6688 7.96121 22.6191 7.71135 22.6192 7.45904C22.6192 7.2069 22.6689 6.95724 22.7654 6.72429C22.8618 6.49135 23.0033 6.2797 23.1815 6.10141C23.3598 5.92312 23.5715 5.7817 23.8044 5.68521C24.0374 5.58872 24.287 5.53906 24.5392 5.53906C25.0483 5.53923 25.5366 5.74157 25.8966 6.1016C26.2566 6.46162 26.459 6.94988 26.4592 7.45904H26.4611Z" fill="#202020"/>
</g>
<defs>
<clipPath id="clip0_688:302">
<rect width="32" height="32" fill="white"/>
</clipPath>
</defs>
</svg>
