<svg width="289" height="37" viewBox="0 0 289 37" fill="none" xmlns="http://www.w3.org/2000/svg">
<g clip-path="url(#clip0_604:275)">
<path d="M0 0.600098H20.3C23.7 0.600098 26.3 1.4001 28.1 3.1001C29.9 4.8001 30.8 6.9001 30.8 9.3001C30.8 11.4001 30.2 13.2001 28.9 14.6001C28 15.6001 26.8 16.4001 25.1 16.9001C27.6 17.5001 29.5 18.6001 30.7 20.0001C31.9 21.5001 32.5 23.3001 32.5 25.6001C32.5 27.4001 32.1 29.1001 31.2 30.5001C30.4 32.0001 29.2 33.1001 27.7 34.0001C26.8 34.5001 25.4 34.9001 23.6 35.2001C21.2 35.5001 19.5 35.7001 18.7 35.7001H0V0.600098ZM11 14.4001H15.7C17.4 14.4001 18.6 14.1001 19.2 13.5001C19.9 12.9001 20.2 12.1001 20.2 11.0001C20.2 10.0001 19.9 9.2001 19.2 8.6001C18.5 8.0001 17.4 7.7001 15.7 7.7001H11V14.4001ZM11 28.2001H16.5C18.4 28.2001 19.7 27.9001 20.5 27.2001C21.3 26.5001 21.7 25.6001 21.7 24.5001C21.7 23.5001 21.3 22.6001 20.6 22.0001C19.8 21.4001 18.5 21.1001 16.6 21.1001H11V28.2001Z" fill="#202020"/>
<path d="M58.6 0.600098H69.4V21.5001C69.4 23.6001 69.1 25.5001 68.4 27.4001C67.8 29.2001 66.7 30.9001 65.4 32.2001C64 33.6001 62.6 34.6001 61 35.1001C58.9 35.9001 56.4 36.3001 53.4 36.3001C51.7 36.3001 49.8 36.2001 47.8 35.9001C45.8 35.7001 44.1 35.2001 42.7 34.5001C41.3 33.8001 40.1 32.8001 39 31.5001C37.9 30.2001 37.1 28.8001 36.7 27.5001C36 25.3001 35.7 23.3001 35.7 21.6001V0.600098H46.5V22.0001C46.5 23.9001 47 25.4001 48.1 26.5001C49.2 27.6001 50.6 28.1001 52.5 28.1001C54.4 28.1001 55.8 27.6001 56.9 26.5001C58 25.4001 58.5 23.9001 58.5 22.0001V0.600098H58.6Z" fill="#202020"/>
<path d="M98.8 21.4L108.3 24.3C107.7 27 106.7 29.2 105.3 31C103.9 32.8 102.2 34.1 100.2 35.1C98.2 36 95.6 36.5 92.4 36.5C88.6 36.5 85.5 35.9 83 34.8C80.6 33.7 78.5 31.7 76.7 28.9C74.9 26.1 74.1 22.5 74.1 18.2C74.1 12.4 75.6 7.9 78.7 4.8C81.8 1.6 86.2 0 91.9 0C96.3 0 99.8 0.9 102.3 2.7C104.8 4.5 106.7 7.2 107.9 10.9L98.3 13C98 11.9 97.6 11.1 97.2 10.6C96.6 9.8 95.9 9.1 95 8.7C94.1 8.3 93.1 8 92 8C89.5 8 87.7 9 86.3 11C85.3 12.5 84.8 14.8 84.8 17.9C84.8 21.8 85.4 24.5 86.6 25.9C87.8 27.3 89.4 28.1 91.6 28.1C93.7 28.1 95.2 27.5 96.3 26.3C97.5 25.3 98.3 23.6 98.8 21.4Z" fill="#202020"/>
<path d="M111 18.2C111 12.5 112.6 8 115.8 4.8C119 1.6 123.4 0 129.1 0C135 0 139.5 1.6 142.6 4.7C145.8 7.8 147.4 12.2 147.4 17.9C147.4 22 146.7 25.4 145.3 28C143.9 30.6 141.9 32.7 139.3 34.1C136.7 35.6 133.4 36.3 129.5 36.3C125.5 36.3 122.3 35.7 119.7 34.4C117.1 33.1 115 31.1 113.4 28.4C111.8 25.7 111 22.3 111 18.2ZM121.8 18.3C121.8 21.8 122.5 24.4 123.8 26C125.1 27.6 126.9 28.3 129.2 28.3C131.5 28.3 133.3 27.5 134.6 26C135.9 24.5 136.5 21.8 136.5 17.8C136.5 14.5 135.8 12.1 134.5 10.5C133.2 9 131.4 8.2 129.1 8.2C126.9 8.2 125.1 9 123.8 10.5C122.5 12.1 121.8 14.7 121.8 18.3Z" fill="#202020"/>
<path d="M146.5 0.600098H157.9L165.8 25.9001L173.6 0.600098H184.6L171.5 35.8001H159.7L146.5 0.600098Z" fill="#202020"/>
<path d="M186.9 0.600098H216V8.1001H197.8V13.7001H214.7V20.9001H197.8V27.8001H216.6V35.8001H187V0.600098H186.9Z" fill="#202020"/>
<path d="M221.3 35.8001V0.600098H239.4C242.8 0.600098 245.3 0.900098 247.1 1.5001C248.9 2.1001 250.3 3.1001 251.4 4.7001C252.5 6.3001 253 8.2001 253 10.4001C253 12.3001 252.6 14.0001 251.8 15.5001C251 16.9001 249.8 18.1001 248.4 18.9001C247.5 19.5001 246.2 19.9001 244.6 20.3001C245.9 20.7001 246.8 21.2001 247.4 21.6001C247.8 21.9001 248.4 22.5001 249.1 23.4001C249.9 24.3001 250.4 25.1001 250.6 25.6001L255.9 35.8001H243.6L237.8 25.0001C237.1 23.6001 236.4 22.7001 235.8 22.3001C235 21.8001 234.1 21.5001 233.1 21.5001H232.1V35.8001H221.3ZM232.2 14.8001H236.8C237.3 14.8001 238.3 14.6001 239.7 14.3001C240.4 14.2001 241 13.8001 241.5 13.2001C242 12.6001 242.2 11.9001 242.2 11.2001C242.2 10.1001 241.8 9.2001 241.1 8.6001C240.3 8.0001 239 7.7001 237 7.7001H232.2V14.8001Z" fill="#202020"/>
<path d="M256.2 24.1L266.5 23.5C266.7 25.2 267.2 26.5 267.9 27.3C269 28.7 270.6 29.4 272.7 29.4C274.2 29.4 275.4 29 276.3 28.3C277.1 27.6 277.6 26.7 277.6 25.8C277.6 24.9 277.2 24.1 276.4 23.4C275.6 22.7 273.7 22 270.8 21.4C266 20.3 262.6 18.9 260.6 17.1C258.6 15.3 257.5 13.1 257.5 10.3C257.5 8.5 258 6.8 259.1 5.2C260.1 3.6 261.7 2.3 263.8 1.4C265.9 0.5 268.8 0 272.4 0C276.9 0 280.3 0.8 282.7 2.5C285.1 4.2 286.5 6.8 286.9 10.5L276.7 11.1C276.4 9.5 275.9 8.4 275 7.6C274.1 6.9 272.9 6.5 271.4 6.5C270.1 6.5 269.2 6.8 268.5 7.3C267.9 7.8 267.5 8.5 267.5 9.3C267.5 9.9 267.8 10.4 268.3 10.8C268.8 11.3 270 11.7 271.9 12.1C276.6 13.1 280 14.2 282.1 15.2C284.2 16.2 285.6 17.5 286.6 19.1C287.5 20.7 288 22.4 288 24.3C288 26.6 287.4 28.6 286.1 30.5C284.9 32.4 283.1 33.8 280.9 34.8C278.7 35.8 275.8 36.3 272.4 36.3C266.4 36.3 262.3 35.1 260 32.8C257.8 30.6 256.5 27.7 256.2 24.1Z" fill="#202020"/>
</g>
<defs>
<clipPath id="clip0_604:275">
<rect width="288.1" height="36.4" fill="white"/>
</clipPath>
</defs>
</svg>
