<svg width="214" height="27" viewBox="0 0 214 27" fill="none" xmlns="http://www.w3.org/2000/svg">
<path d="M0 0.443848H15.0164C17.5315 0.443848 19.4548 1.03563 20.7863 2.29316C22.1178 3.5507 22.7836 5.10412 22.7836 6.87946C22.7836 8.43289 22.3397 9.7644 21.3781 10.8C20.7123 11.5397 19.8247 12.1315 18.5671 12.5014C20.4164 12.9452 21.8219 13.7589 22.7096 14.7945C23.5973 15.9041 24.0411 17.2356 24.0411 18.937C24.0411 20.2685 23.7452 21.526 23.0795 22.5617C22.4877 23.6712 21.6 24.4849 20.4904 25.1507C19.8247 25.5206 18.789 25.8165 17.4575 26.0384C15.6822 26.2603 14.4247 26.4082 13.8329 26.4082H0V0.443848ZM8.13699 10.6521H11.6137C12.8712 10.6521 13.7589 10.4301 14.2027 9.98631C14.7205 9.54248 14.9425 8.9507 14.9425 8.137C14.9425 7.39727 14.7205 6.80549 14.2027 6.36166C13.6849 5.91782 12.8712 5.6959 11.6137 5.6959H8.13699V10.6521ZM8.13699 20.8603H12.2055C13.611 20.8603 14.5726 20.6384 15.1644 20.1206C15.7562 19.6028 16.0521 18.937 16.0521 18.1233C16.0521 17.3836 15.7562 16.7178 15.2384 16.274C14.6466 15.8301 13.6849 15.6082 12.2795 15.6082H8.13699V20.8603Z" fill="white"/>
<path d="M43.3479 0.443848H51.337V15.9041C51.337 17.4575 51.1151 18.863 50.5972 20.2685C50.1534 21.6 49.3397 22.8575 48.3781 23.8192C47.3425 24.8548 46.3068 25.5945 45.1233 25.9644C43.5698 26.5562 41.7205 26.8521 39.5014 26.8521C38.2438 26.8521 36.8383 26.7781 35.3589 26.5562C33.8794 26.4082 32.6219 26.0384 31.5863 25.5206C30.5507 25.0028 29.663 24.263 28.8493 23.3014C28.0356 22.3397 27.4438 21.3041 27.1479 20.3425C26.6301 18.7151 26.4082 17.2356 26.4082 15.9781V0.443848H34.3972V16.274C34.3972 17.6795 34.7671 18.7891 35.5808 19.6028C36.3945 20.4165 37.4301 20.7863 38.8356 20.7863C40.2411 20.7863 41.2767 20.4165 42.0904 19.6028C42.9041 18.7891 43.274 17.6795 43.274 16.274V0.443848H43.3479Z" fill="white"/>
<path d="M73.0849 15.8301L80.1123 17.9753C79.6685 19.9726 78.9287 21.6 77.8931 22.9315C76.8575 24.263 75.6 25.2247 74.1205 25.9644C72.6411 26.6301 70.7178 27 68.3506 27C65.5397 27 63.2465 26.5562 61.3972 25.7425C59.6219 24.9288 58.0685 23.4493 56.7369 21.3781C55.4054 19.3068 54.8137 16.6438 54.8137 13.463C54.8137 9.1726 55.9232 5.84384 58.2164 3.55068C60.5095 1.18356 63.7643 0 67.9808 0C71.2356 0 73.8246 0.665753 75.6739 1.99726C77.5233 3.32877 78.9287 5.32603 79.8164 8.06301L72.715 9.61644C72.4931 8.80274 72.1972 8.21096 71.9013 7.8411C71.4575 7.24932 70.9397 6.73151 70.2739 6.43562C69.6082 6.13973 68.8685 5.91781 68.0548 5.91781C66.2054 5.91781 64.8739 6.65753 63.8383 8.13699C63.0986 9.24658 62.7287 10.9479 62.7287 13.2411C62.7287 16.126 63.1726 18.1233 64.0602 19.1589C64.9479 20.1945 66.1315 20.7863 67.7589 20.7863C69.3123 20.7863 70.4219 20.3425 71.2356 19.4548C72.1233 18.7151 72.715 17.4575 73.0849 15.8301Z" fill="white"/>
<path d="M82.1096 13.463C82.1096 9.24658 83.2932 5.91781 85.6603 3.55069C88.0274 1.18356 91.2822 0 95.4987 0C99.863 0 103.192 1.18356 105.485 3.47671C107.852 5.76986 109.036 9.02466 109.036 13.2411C109.036 16.274 108.518 18.789 107.482 20.7123C106.447 22.6356 104.967 24.189 103.044 25.2247C101.121 26.3342 98.6795 26.8521 95.7946 26.8521C92.8356 26.8521 90.4685 26.4082 88.5452 25.4466C86.6219 24.4849 85.0685 23.0055 83.885 21.0082C82.7014 19.011 82.1096 16.4959 82.1096 13.463ZM90.0987 13.537C90.0987 16.126 90.6165 18.0493 91.5781 19.2329C92.5398 20.4164 93.8713 20.9342 95.5726 20.9342C97.274 20.9342 98.6055 20.3425 99.5672 19.2329C100.529 18.1233 100.973 16.126 100.973 13.1671C100.973 10.726 100.455 8.95069 99.4932 7.76712C98.5315 6.65753 97.2 6.06575 95.4987 6.06575C93.8713 6.06575 92.5398 6.65753 91.5781 7.76712C90.6165 8.95069 90.0987 10.874 90.0987 13.537Z" fill="white"/>
<path d="M108.37 0.443848H116.803L122.647 19.1589L128.416 0.443848H136.553L126.863 26.4822H118.134L108.37 0.443848Z" fill="white"/>
<path d="M138.255 0.443848H159.781V5.99179H146.318V10.1343H158.819V15.4603H146.318V20.5644H160.225V26.4822H138.329V0.443848H138.255Z" fill="white"/>
<path d="M163.701 26.4822V0.443848H177.09C179.606 0.443848 181.455 0.665765 182.786 1.1096C184.118 1.55344 185.153 2.29316 185.967 3.47672C186.781 4.66029 187.151 6.06576 187.151 7.69316C187.151 9.09864 186.855 10.3562 186.263 11.4658C185.671 12.5014 184.784 13.3891 183.748 13.9808C183.082 14.4247 182.121 14.7206 180.937 15.0164C181.899 15.3123 182.564 15.6822 183.008 15.9781C183.304 16.2 183.748 16.6438 184.266 17.3096C184.858 17.9754 185.227 18.5671 185.375 18.937L189.296 26.4822H180.197L175.907 18.4932C175.389 17.4575 174.871 16.7918 174.427 16.4959C173.836 16.126 173.17 15.9041 172.43 15.9041H171.69V26.4822H163.701ZM171.764 10.948H175.167C175.537 10.948 176.277 10.8 177.312 10.5781C177.83 10.5041 178.274 10.2082 178.644 9.76439C179.014 9.32056 179.162 8.80275 179.162 8.28494C179.162 7.47124 178.866 6.80549 178.348 6.36166C177.756 5.91782 176.795 5.6959 175.315 5.6959H171.764V10.948Z" fill="white"/>
<path d="M189.518 17.8274L197.137 17.3836C197.285 18.6411 197.655 19.6027 198.173 20.1945C198.986 21.2301 200.17 21.7479 201.723 21.7479C202.833 21.7479 203.721 21.4521 204.386 20.9342C204.978 20.4164 205.348 19.7507 205.348 19.0849C205.348 18.4192 205.052 17.8274 204.46 17.3096C203.868 16.7918 202.463 16.274 200.318 15.8301C196.767 15.0164 194.252 13.9808 192.773 12.6493C191.293 11.3178 190.479 9.69041 190.479 7.61918C190.479 6.28767 190.849 5.03014 191.663 3.84658C192.403 2.66301 193.586 1.70137 195.14 1.03562C196.693 0.369863 198.838 0 201.501 0C204.83 0 207.345 0.591781 209.121 1.84932C210.896 3.10685 211.932 5.03014 212.227 7.76712L204.682 8.21096C204.46 7.0274 204.09 6.2137 203.425 5.62192C202.759 5.10411 201.871 4.80822 200.762 4.80822C199.8 4.80822 199.134 5.03014 198.616 5.4C198.173 5.76986 197.877 6.28767 197.877 6.87945C197.877 7.32329 198.099 7.69315 198.468 7.98904C198.838 8.3589 199.726 8.6548 201.132 8.95069C204.608 9.69041 207.123 10.5041 208.677 11.2438C210.23 11.9836 211.266 12.9452 212.005 14.1288C212.671 15.3123 213.041 16.5699 213.041 17.9753C213.041 19.6767 212.597 21.1562 211.636 22.5616C210.748 23.9671 209.416 25.0027 207.789 25.7425C206.162 26.4822 204.016 26.8521 201.501 26.8521C197.063 26.8521 194.03 25.9644 192.329 24.263C190.701 22.6356 189.74 20.4904 189.518 17.8274Z" fill="white"/>
</svg>
