<svg width="590" height="265" viewBox="0 0 590 265" fill="none" xmlns="http://www.w3.org/2000/svg">
<path d="M159.259 98.6493C158.437 96.6839 158.262 94.5119 158.751 92.4454H159.116L159.202 92.0519C159.737 89.5993 160.902 87.3283 162.583 85.4628L162.583 85.4628L162.589 85.4555C163.444 84.469 164.5 83.6774 165.687 83.1342C166.874 82.591 168.164 82.3087 169.47 82.3068L169.49 82.3068L169.51 82.3051C170.594 82.216 171.68 82.459 172.623 83.0017C173.559 83.5398 174.309 84.3473 174.777 85.3183C175.498 87.4128 175.495 89.6885 174.768 91.7814L174.757 91.8138L174.75 91.8475C174.253 94.3352 173.086 96.64 171.374 98.5128L171.374 98.5127L171.367 98.5198C170.509 99.495 169.45 100.274 168.263 100.803C167.077 101.331 165.789 101.598 164.49 101.584L164.461 101.584L164.431 101.587C163.369 101.7 162.297 101.477 161.368 100.949C160.441 100.422 159.704 99.6173 159.259 98.6493ZM164.347 91.8329L164.347 91.8356C163.95 93.5954 163.819 94.9964 164.028 95.9824C164.135 96.4844 164.339 96.9214 164.684 97.2327C165.036 97.5506 165.481 97.6895 165.971 97.6895C166.981 97.6895 167.795 97.1156 168.432 96.1547C169.061 95.2056 169.558 93.8251 169.957 92.0552C170.352 90.2977 170.485 88.9161 170.275 87.9495C170.167 87.4556 169.96 87.028 169.613 86.7255C169.26 86.4185 168.816 86.2887 168.332 86.2887C167.324 86.2887 166.51 86.8614 165.873 87.8102C165.244 88.7479 164.746 90.1062 164.347 91.8329Z" fill="#1D1D1B" stroke="#202020"/>
<path d="M152.827 92.4875C152.753 91.9596 152.752 91.4239 152.825 90.8958L153.344 88.4756L154.82 82.6562H159.997L155.266 101.321H149.83L147.131 91.2908L146.149 91.4469C146.178 91.9986 146.178 92.5515 146.151 93.1032L145.636 95.5022L144.16 101.321H139.071L143.802 82.6562H149.066L151.85 92.6907L152.827 92.4875Z" fill="#1D1D1B" stroke="#202020"/>
<path d="M113.46 96.2832L113.464 96.2698L113.467 96.2563L115.037 89.6487H119.71L118.005 97.7626C117.515 99.3242 116.487 100.662 115.104 101.539C113.714 102.42 112.056 102.779 110.426 102.55L110.392 102.545H110.357C108.136 102.545 106.776 101.71 106.003 100.745C105.21 99.7529 105.024 98.6166 105.161 97.999C105.161 97.9984 105.161 97.9979 105.161 97.9973L107.082 89.6487H111.736L110.22 96.0251L110.178 96.2018L110.26 96.3643L110.707 96.1407C110.26 96.3643 110.26 96.3645 110.26 96.3646L110.26 96.3649L110.26 96.3655L110.261 96.3669L110.263 96.3709L110.269 96.3824C110.274 96.3917 110.28 96.4041 110.289 96.4192C110.305 96.4495 110.329 96.4909 110.359 96.5398C110.419 96.6365 110.507 96.7678 110.621 96.9016C110.824 97.1405 111.211 97.5097 111.745 97.5147C112.125 97.5283 112.499 97.4157 112.809 97.1947C113.121 96.9717 113.35 96.651 113.46 96.2832Z" fill="#1D1D1B" stroke="#202020"/>
<path d="M99.9954 101.321H94.2831L97.2908 88.2113L97.4312 87.5995H96.8035H92.9773L94.1375 82.7437H113.388L112.155 87.5995H103.712H103.318L103.226 87.9818L99.9954 101.321Z" fill="#1D1D1B" stroke="#202020"/>
<path d="M127.783 93.1856L132.115 82.7437H138.058L128.847 101.321H123.195L120.906 88.0147L120.834 87.5995H120.413H115.616L116.703 82.7437H125.902L126.823 93.0385L127.783 93.1856Z" fill="#1D1D1B" stroke="#202020"/>
<path d="M198.439 87.861L196.182 96.5392L196.019 97.165H196.666C197.862 97.165 198.918 96.9565 199.757 95.9736C200.55 95.0441 201.091 93.4838 201.529 90.9906C201.76 89.875 201.666 88.9122 201.189 88.2118C200.699 87.4918 199.885 87.1627 198.939 87.1627H198.439V87.6627V87.861ZM186.722 94.7422V94.8716L186.784 94.9848C187.71 96.6534 188.519 98.3846 189.203 100.166L189.771 101.643L190.155 100.108L194.433 83.0061H200.251C202.836 83.0061 204.63 83.9371 205.654 85.4325C206.688 86.9428 207.002 89.1254 206.409 91.7479L206.409 91.7479L206.408 91.7533C205.629 95.3856 204.5 97.843 202.809 99.4C201.131 100.945 198.824 101.671 195.529 101.671H184.425C184.199 101.046 183.97 100.43 183.745 99.8249C183.124 98.154 182.531 96.5609 182.107 95.0442L181.136 95.0739L179.735 101.584H174.311L179.04 83.0061H185.895C187.325 83.0914 188.668 83.7186 189.65 84.76C190.636 85.8049 191.184 87.1873 191.181 88.6232L191.181 88.6482L191.184 88.673C191.307 89.9285 190.961 91.1853 190.21 92.1999C189.46 93.2144 188.36 93.9144 187.122 94.1646L186.722 94.2457V94.6547V94.7422ZM183.374 87.4249H182.874V87.9249C182.874 88.8158 182.862 89.6198 182.352 90.3475L181.801 91.1343H182.762H183.811C184.218 91.1343 184.739 90.9208 185.146 90.6024C185.564 90.2759 185.973 89.7524 185.973 89.0612L185.973 89.0395C185.973 88.8173 185.973 88.603 185.953 88.4243C185.933 88.2403 185.886 88.0135 185.732 87.8201C185.568 87.6151 185.345 87.5231 185.134 87.4782C184.931 87.4351 184.69 87.4249 184.423 87.4249H183.374Z" fill="#1D1D1B" stroke="#202020"/>
<path d="M172.711 46.9819C167.371 50.2964 163.045 55.0064 160.196 60.5978C162.212 56.3745 165.069 52.6035 168.595 49.5166C172.315 46.2598 176.693 43.8409 181.431 42.4242C186.169 41.0075 191.157 40.6259 196.055 41.3058C200.954 41.9856 205.648 43.7109 209.821 46.3643C213.994 49.0176 217.546 52.5369 220.238 56.6836C222.929 60.8303 224.697 65.5071 225.421 70.3968C226.144 75.2864 225.807 80.2744 224.431 85.0222C223.077 89.6968 220.748 94.0309 217.598 97.7397H217.597H217.595H217.593H217.591H217.59H217.588H217.586H217.584H217.582H217.58H217.579H217.577H217.575H217.573H217.571H217.569H217.568H217.566H217.564H217.562H217.56H217.558H217.556H217.554H217.553H217.551H217.549H217.547H217.545H217.543H217.541H217.539H217.537H217.535H217.533H217.532H217.53H217.528H217.526H217.524H217.522H217.52H217.518H217.516H217.514H217.512H217.51H217.508H217.506H217.504H217.502H217.5H217.498H217.496H217.494H217.493H217.491H217.489H217.487H217.485H217.483H217.481H217.479H217.477H217.475H217.473H217.471H217.469H217.467H217.465H217.463H217.461H217.459H217.457H217.455H217.453C222.482 91.4702 225.145 83.6318 224.975 75.597C224.95 66.6265 221.368 58.0319 215.013 51.6971C208.657 45.3615 200.048 41.8035 191.071 41.8031C184.585 41.7663 178.221 43.5615 172.711 46.9819Z" fill="#1D1D1B" stroke="#202020"/>
<path d="M128.46 255.736C198.826 255.736 255.869 198.723 255.869 128.393C255.869 58.0633 198.826 1.04974 128.46 1.04974C58.0933 1.04974 1.05029 58.0633 1.05029 128.393C1.05029 198.723 58.0933 255.736 128.46 255.736Z" stroke="#202020" stroke-width="0.25" stroke-miterlimit="22.93"/>
<path d="M182.825 164.7C189.917 154.092 193.745 141.644 193.843 128.893H246.623C246.525 152.098 239.594 174.766 226.689 194.065C213.691 213.504 195.218 228.652 173.605 237.595C151.992 246.538 128.211 248.874 105.27 244.306C82.3289 239.739 61.2583 228.474 44.724 211.936C28.1896 195.398 16.9341 174.33 12.3812 151.398C7.82829 128.465 10.1826 104.698 19.1462 83.1034C28.1097 61.5084 43.2799 43.0554 62.7378 30.0788C82.0571 17.1947 104.741 10.284 127.959 10.2031V63.0434C115.202 63.1408 102.747 66.967 92.1334 74.0553C81.3809 81.2362 73.0001 91.4426 68.0512 103.384C63.1023 115.326 61.8074 128.466 64.3304 141.143C66.8533 153.82 73.0807 165.464 82.225 174.604C91.3693 183.743 103.02 189.968 115.703 192.489C128.387 195.011 141.533 193.717 153.481 188.77C165.428 183.824 175.64 175.448 182.825 164.7Z" fill="#1D1D1B" stroke="#202020"/>
<path d="M82.7493 130.052V137.768H82.0878V130.052V129.552H81.5878H79.7266V128.892H85.1978V129.552H83.2493H82.7493V130.052Z" fill="#1D1D1B" stroke="#202020"/>
<path d="M87.2701 128.893H87.8201V133.724V133.73V133.735V133.74V133.745V133.75V133.755V133.76V133.765V133.77V133.775V133.78V133.785V133.79V133.795V133.8V133.805V133.81V133.815V133.82V133.825V133.83V133.835V133.84V133.845V133.85V133.855V133.86V133.865V133.87V133.875V133.879V133.884V133.889V133.894V133.899V133.904V133.908V133.913V133.918V133.923V133.928V133.933V133.937V133.942V133.947V133.952V133.956V133.961V133.966V133.971V133.975V133.98V133.985V133.989V133.994V133.999V134.003V134.008V134.013V134.017V134.022V134.027V134.031V134.036V134.041V134.045V134.05V134.054V134.059V134.064V134.068V134.073V134.077V134.082V134.086V134.091V134.095V134.1V134.104V134.109V134.113V134.118V134.122V134.127V134.131V134.136V134.14V134.145V134.149V134.153V134.158V134.162V134.167V134.171V134.175V134.18V134.184V134.189V134.193V134.197V134.202V134.206V134.21V134.215V134.219V134.223V134.227V134.232V134.236V134.24V134.245V134.249V134.253V134.257V134.261V134.266V134.27V134.274V134.278V134.283V134.287V134.291V134.295V134.299V134.303V134.308V134.312V134.316V134.32V134.324V134.328V134.332V134.336V134.34V134.345V134.349V134.353V134.357V134.361V134.365V134.369V134.373V134.377V134.381V134.385V134.389V134.393V134.397V134.401V134.405V134.409V134.413V134.417V134.421V134.425V134.428V134.432V134.436V134.44V134.444V134.448V134.452V134.456V134.46V134.463V134.467V134.471V134.475V134.479V134.483V134.486V134.49V134.494V134.498V134.502V134.505V134.509V134.513V134.517V134.52V134.524V134.528V134.532V134.535V134.539V134.543V134.546V134.55V134.554V134.558V134.561V134.565V134.569V134.572V134.576V134.579V134.583V134.587V134.59V134.594V134.597V134.601V134.605V134.608V134.612V134.615V134.619V134.622V134.626V134.63V134.633V134.637V134.64V134.644V134.647V134.651V134.654V134.657V134.661V134.664V134.668V134.671V134.675V134.678V134.682V134.685V134.688V134.692V134.695V134.699V134.702V134.705V134.709V134.712V134.715V134.719V134.722V134.725V134.729V134.732V134.735V134.739V134.742V134.745V134.749V134.752V134.755V134.758V134.762V134.765V134.768V134.771V134.775V134.778V134.781V134.784V134.787V134.791V134.794V134.797V134.8V134.803V134.806V134.81V134.813V134.816V134.819V134.822V134.825V134.828V134.831V134.835V134.838V134.841V134.844V134.847V134.85V134.853V134.856V134.859V134.862V134.865V134.868V134.871V134.874V134.877V134.88V134.883V134.886V134.889V134.892V134.895V134.898V134.901V134.904V134.907V134.91V134.913V134.915V134.918V134.921V134.924V134.927V134.93V134.933V134.936V134.938V134.941V134.944V134.947V134.95V134.953V134.955V134.958V134.961V134.964V134.967V134.969V134.972V134.975V134.978V134.98V134.983V134.986V134.989V134.991V134.994V134.997V134.999V135.002V135.005V135.008V135.01V135.013V135.016V135.018V135.021V135.023V135.026V135.029V135.031V135.034V135.037V135.039V135.042V135.044V135.047V135.05V135.052V135.055V135.057V135.06V135.062V135.065V135.067V135.07V135.072V135.075V135.077V135.08V135.082V135.085V135.087V135.09V135.092V135.095V135.097V135.1V135.102V135.105V135.107V135.109V135.112V135.114V135.117V135.119V135.121V135.124V135.126V135.129V135.131V135.133V135.136V135.138V135.14V135.143V135.145V135.147V135.15V135.152V135.154V135.156V135.159V135.161V135.163V135.165V135.168V135.17V135.172V135.174V135.177V135.179V135.181V135.183V135.186V135.188V135.19V135.192V135.194V135.196V135.199V135.201V135.203V135.205V135.207V135.209V135.212V135.214V135.216V135.218V135.22V135.222V135.224V135.226V135.228V135.23V135.232V135.234V135.237V135.239V135.241V135.243V135.245V135.247V135.249V135.251V135.253V135.255V135.257V135.259V135.261V135.263V135.265V135.267V135.268V135.27V135.272V135.274V135.276V135.278V135.28V135.282V135.284V135.286V135.288V135.29V135.291V135.293V135.295V135.297V135.299V135.301V135.303V135.304V135.306V135.308V135.31V135.312V135.313V135.315V135.317V135.319V135.321V135.322V135.324V135.326V135.328V135.329V135.331V135.333V135.335V135.336V135.338V135.34V135.341V135.343V135.345V135.346V135.348V135.35V135.352V135.353V135.355V135.356V135.358V135.36V135.361V135.363V135.365V135.366V135.368V135.369V135.371V135.373V135.374V135.376V135.377V135.379V135.38V135.382V135.384V135.385V135.427L87.8271 135.469C87.9104 135.961 88.1385 136.417 88.4823 136.778L88.5741 136.875L88.7019 136.913C89.0888 137.028 89.4981 137.041 89.89 136.952C90.2587 137.04 90.6459 137.026 91.0088 136.91L91.107 136.878L91.1847 136.811C91.4596 136.571 91.681 136.276 91.8344 135.945L91.8807 135.845V135.735V135.735V135.735V135.735V135.735V135.734V135.734V135.734V135.734V135.734V135.733V135.733V135.733V135.733V135.732V135.732V135.732V135.731V135.731V135.73V135.73V135.73V135.729V135.729V135.728V135.727V135.727V135.726V135.726V135.725V135.724V135.724V135.723V135.722V135.722V135.721V135.72V135.719V135.718V135.718V135.717V135.716V135.715V135.714V135.713V135.712V135.711V135.71V135.709V135.708V135.707V135.706V135.705V135.704V135.703V135.702V135.7V135.699V135.698V135.697V135.695V135.694V135.693V135.692V135.69V135.689V135.688V135.686V135.685V135.683V135.682V135.68V135.679V135.677V135.676V135.674V135.673V135.671V135.67V135.668V135.666V135.665V135.663V135.661V135.66V135.658V135.656V135.654V135.653V135.651V135.649V135.647V135.645V135.644V135.642V135.64V135.638V135.636V135.634V135.632V135.63V135.628V135.626V135.624V135.622V135.62V135.618V135.615V135.613V135.611V135.609V135.607V135.605V135.602V135.6V135.598V135.596V135.593V135.591V135.589V135.586V135.584V135.582V135.579V135.577V135.574V135.572V135.57V135.567V135.565V135.562V135.56V135.557V135.554V135.552V135.549V135.547V135.544V135.541V135.539V135.536V135.533V135.531V135.528V135.525V135.523V135.52V135.517V135.514V135.511V135.509V135.506V135.503V135.5V135.497V135.494V135.491V135.488V135.485V135.482V135.479V135.476V135.473V135.47V135.467V135.464V135.461V135.458V135.455V135.452V135.449V135.446V135.443V135.439V135.436V135.433V135.43V135.427V135.423V135.42V135.417V135.414V135.41V135.407V135.404V135.4V135.397V135.394V135.39V135.387V135.383V135.38V135.376V135.373V135.37V135.366V135.363V135.359V135.356V135.352V135.348V135.345V135.341V135.338V135.334V135.33V135.327V135.323V135.32V135.316V135.312V135.309V135.305V135.301V135.297V135.294V135.29V135.286V135.282V135.279V135.275V135.271V135.267V135.263V135.259V135.255V135.252V135.248V135.244V135.24V135.236V135.232V135.228V135.224V135.22V135.216V135.212V135.208V135.204V135.2V135.196V135.192V135.188V135.184V135.18V135.176V135.171V135.167V135.163V135.159V135.155V135.151V135.147V135.142V135.138V135.134V135.13V135.125V135.121V135.117V135.113V135.108V135.104V135.1V135.095V135.091V135.087V135.082V135.078V135.074V135.069V135.065V135.061V135.056V135.052V135.047V135.043V135.038V135.034V135.029V135.025V135.02V135.016V135.011V135.007V135.002V134.998V134.993V134.989V134.984V134.98V134.975V134.97V134.966V134.961V134.957V134.952V134.947V134.943V134.938V134.933V134.929V134.924V134.919V134.915V134.91V134.905V134.9V134.896V134.891V134.886V134.881V134.877V134.872V134.867V134.862V134.857V134.853V134.848V134.843V134.838V134.833V134.828V134.823V134.819V134.814V134.809V134.804V134.799V134.794V134.789V134.784V134.779V134.774V134.769V134.764V134.759V134.754V134.749V134.744V134.739V134.734V134.729V134.724V134.719V134.714V134.709V134.704V134.699V134.694V134.689V134.684V134.679V134.674V134.669V134.664V134.658V134.653V134.648V134.643V134.638V134.633V134.628V134.622V134.617V134.612V134.607V134.602V134.597V134.591V134.586V134.581V134.576V134.571V134.565V134.56V134.555V134.55V134.544V134.539V134.534V134.529V134.523V134.518V134.513V134.507V134.502V134.497V134.492V134.486V134.481V134.476V134.47V134.465V134.46V134.454V134.449V134.444V134.438V134.433V134.427V134.422V134.417V134.411V134.406V134.401V134.395V134.39V134.384V134.379V134.374V134.368V134.363V134.357V134.352V134.346V134.341V134.336V134.33V134.325V134.319V134.314V134.308V134.303V134.297V134.292V134.286V134.281V134.275V134.27V134.264V134.259V134.253V134.248V134.242V134.237V134.231V134.226V134.22V134.215V134.209V134.204V134.198V134.193V134.187V134.182V134.176V134.171V134.165V134.16V134.154V134.148V134.143V134.137V134.132V134.126V134.121V134.115V134.109V134.104V134.098V134.093V134.087V134.082V134.076V134.07V134.065V134.059V134.054V134.048V134.042V134.037V134.031V134.026V134.02V134.014V134.009V134.003V133.998V133.992V133.986V133.981V133.975V133.97V133.964V133.958V133.953V133.947V133.941V133.936V133.93V133.925V133.919V133.913V133.908V133.902V133.896V133.891V133.885V133.88V133.874V133.868V133.863V133.857V133.851V133.846V133.84V133.834V133.829V133.823V133.818V133.812V128.806H92.4547V133.462V133.497L92.4594 133.53C92.5847 134.44 92.5849 135.363 92.4601 136.273C92.4229 136.503 92.3382 136.723 92.2113 136.919C92.0835 137.117 91.9159 137.285 91.7192 137.414L91.7192 137.414L91.7155 137.416C91.2381 137.735 90.6701 137.89 90.0971 137.857L90.0075 137.852L89.9217 137.879C89.3855 138.044 88.8132 138.051 88.274 137.899C87.9261 137.655 87.656 137.315 87.4964 136.921C87.3751 135.969 87.3777 135.004 87.5041 134.052L87.51 134.008L87.5079 133.963L87.2701 128.893ZM88.6453 126.844V126.184H88.9569V126.844H88.6453ZM91.0062 126.844V126.184H91.3179V126.844H91.0062Z" fill="#1D1D1B" stroke="#202020"/>
<path d="M98.4202 135.865L100.331 128.892H101.025L98.3533 137.768H97.3508L94.7573 128.892H95.462L97.4573 135.871L97.9483 137.588L98.4202 135.865Z" fill="#1D1D1B" stroke="#202020"/>
<path d="M111.12 135.034V128.892H111.607V137.768H110.754L107.657 131.577L106.71 131.8V137.768H106.136V128.892H106.988L110.173 135.258L111.12 135.034Z" fill="#1D1D1B" stroke="#202020"/>
<path d="M114.004 133.414L114.006 133.387L114.005 133.36C113.979 132.442 114.145 131.529 114.493 130.679L114.493 130.679L114.497 130.669C114.724 130.079 115.142 129.582 115.685 129.258L115.709 129.245L115.73 129.228C116.213 128.864 116.809 128.683 117.413 128.716L117.429 128.717L117.445 128.717C117.919 128.713 118.389 128.813 118.821 129.009C119.245 129.201 119.622 129.482 119.927 129.831C120.613 130.87 120.946 132.103 120.876 133.346L120.874 133.38L120.877 133.414C120.976 134.66 120.613 135.899 119.858 136.895C119.548 137.217 119.177 137.475 118.766 137.652C118.347 137.833 117.896 137.926 117.44 137.926C116.984 137.926 116.533 137.833 116.115 137.652C115.704 137.475 115.333 137.217 115.023 136.895C114.268 135.899 113.905 134.66 114.004 133.414ZM115.45 136.186L115.455 136.193L115.46 136.199C115.684 136.513 115.975 136.773 116.312 136.96C116.649 137.147 117.024 137.257 117.408 137.281L117.43 137.283L117.451 137.282C117.854 137.274 118.25 137.172 118.607 136.984C118.964 136.796 119.273 136.528 119.508 136.2L119.524 136.178L119.537 136.154C120.03 135.28 120.265 134.285 120.215 133.284C120.252 132.312 120.017 131.35 119.536 130.505L119.52 130.475L119.499 130.448C119.256 130.131 118.941 129.877 118.58 129.706C118.225 129.538 117.834 129.455 117.441 129.465C117.056 129.454 116.674 129.538 116.329 129.71C115.98 129.885 115.679 130.145 115.456 130.466L115.456 130.466L115.453 130.47C114.871 131.325 114.595 132.35 114.666 133.381C114.623 134.375 114.898 135.357 115.45 136.186Z" fill="#1D1D1B" stroke="#202020"/>
<path d="M123.186 137.722V128.891H126.096H126.145L126.193 128.882C126.737 128.775 127.296 128.77 127.842 128.867C128.112 129.033 128.339 129.26 128.505 129.529C128.578 129.961 128.573 130.402 128.491 130.832L128.478 130.9L128.483 130.968C128.506 131.232 128.474 131.497 128.39 131.749C128.307 132 128.173 132.231 127.996 132.429L127.987 132.439L127.978 132.45C127.814 132.656 127.61 132.823 127.381 132.942C127.457 132.894 127.529 132.837 127.594 132.773L127.24 132.419L127.594 132.773C127.72 132.646 127.817 132.493 127.876 132.325C127.998 132.015 128.017 131.677 127.932 131.358C128.003 131.069 127.983 130.763 127.873 130.482L127.844 130.494C127.839 130.446 127.818 130.393 127.791 130.343C127.784 130.335 127.77 130.32 127.763 130.312C127.755 130.304 127.748 130.298 127.746 130.296L127.746 130.296L127.737 130.288L127.732 130.284L127.73 130.282L127.728 130.28L127.72 130.273L127.662 130.225L127.203 129.843L127.064 129.727H126.883H124.347H123.847V130.227V132.587V133.087H124.347H126.971H127.01C126.921 133.111 126.83 133.128 126.738 133.139L125.33 133.303L125.619 133.485H124.697H124.197V133.985V137.635L123.186 137.722ZM128.185 136.307L128.785 137.506H128.219L127.158 135.687C126.952 135.184 126.683 134.71 126.355 134.277C126.36 134.163 126.353 134.048 126.333 133.935L126.529 134.059C126.819 134.241 127.064 134.487 127.247 134.776L127.268 134.809L127.293 134.838C127.663 135.262 127.959 135.746 128.168 136.269L128.175 136.288L128.185 136.307Z" fill="#1D1D1B" stroke="#202020"/>
<path d="M133.968 137.245H131.319V128.893H133.88H133.931L133.981 128.883C134.45 128.786 134.934 128.784 135.404 128.875C135.721 128.999 135.987 129.226 136.159 129.52L136.185 129.564L136.219 129.601C136.555 129.975 136.784 130.431 136.884 130.923C136.983 131.656 136.982 132.399 136.882 133.133L136.873 133.201L136.883 133.27C136.977 133.941 136.978 134.622 136.886 135.293C136.775 135.755 136.568 136.19 136.28 136.568L136.28 136.569C136.05 136.873 135.746 137.112 135.398 137.263C134.955 137.341 134.503 137.338 134.061 137.254L134.015 137.245H133.968ZM132.568 129.816V129.958L131.981 130.054V136.609V137.109H132.481H133.705H133.708H133.711H133.714H133.717H133.721H133.724H133.727H133.73H133.733H133.736H133.739H133.742H133.745H133.748H133.751H133.754H133.757H133.76H133.763H133.766H133.769H133.772H133.775H133.778H133.781H133.784H133.787H133.79H133.793H133.797H133.8H133.803H133.806H133.809H133.812H133.815H133.818H133.821H133.824H133.827H133.829H133.832H133.835H133.838H133.841H133.844H133.847H133.85H133.853H133.856H133.859H133.862H133.865H133.868H133.871H133.874H133.877H133.88H133.883H133.886H133.889H133.892H133.895H133.898H133.9H133.903H133.906H133.909H133.912H133.915H133.918H133.921H133.924H133.927H133.93H133.933H133.935H133.938H133.941H133.944H133.947H133.95H133.953H133.956H133.959H133.961H133.964H133.967H133.97H133.973H133.976H133.979H133.981H133.984H133.987H133.99H133.993H133.996H133.999H134.001H134.004H134.007H134.01H134.013H134.015H134.018H134.021H134.024H134.027H134.03H134.032H134.035H134.038H134.041H134.044H134.046H134.049H134.052H134.055H134.057H134.06H134.063H134.066H134.069H134.071H134.074H134.077H134.08H134.082H134.085H134.088H134.091H134.093H134.096H134.099H134.102H134.104H134.107H134.11H134.112H134.115H134.118H134.121H134.123H134.126H134.129H134.131H134.134H134.137H134.139H134.142H134.145H134.147H134.15H134.153H134.156H134.158H134.161H134.164H134.166H134.169H134.171H134.174H134.177H134.179H134.182H134.185H134.187H134.19H134.193H134.195H134.198H134.2H134.203H134.206H134.208H134.211H134.213H134.216H134.219H134.221H134.224H134.226H134.229H134.231H134.234H134.237H134.239H134.242H134.244H134.247H134.249H134.252H134.254H134.257H134.26H134.262H134.265H134.267H134.27H134.272H134.275H134.277H134.28H134.282H134.285H134.287H134.29H134.292H134.295H134.297H134.3H134.302H134.305H134.307H134.309H134.312H134.314H134.317H134.319H134.322H134.324H134.327H134.329H134.331H134.334H134.336H134.339H134.341H134.344H134.346H134.348H134.351H134.353H134.356H134.358H134.36H134.363H134.365H134.367H134.37H134.372H134.374H134.377H134.379H134.382H134.384H134.386H134.389H134.391H134.393H134.396H134.398H134.4H134.403H134.405H134.407H134.409H134.412H134.414H134.416H134.419H134.421H134.423H134.425H134.428H134.43H134.432H134.434H134.437H134.439H134.441H134.443H134.446H134.448H134.45H134.452H134.455H134.457H134.459H134.461H134.463H134.466H134.468H134.47H134.472H134.474H134.477H134.479H134.481H134.483H134.485H134.487H134.489H134.492H134.494H134.496H134.498H134.5H134.502H134.504H134.507H134.509H134.511H134.513H134.515H134.517H134.519H134.521H134.523H134.525H134.527H134.529H134.532H134.534H134.536H134.538H134.54H134.542H134.544H134.546H134.548H134.55H134.552H134.554H134.556H134.558H134.56H134.562H134.564H134.566H134.568H134.57H134.572H134.574H134.576H134.578H134.58H134.582H134.584H134.586H134.587H134.589H134.591H134.593H134.595H134.597H134.599H134.601H134.603H134.605H134.607H134.608H134.61H134.612H134.614H134.616H134.618H134.62H134.622H134.623H134.625H134.627H134.629H134.631H134.632H134.634H134.636H134.638H134.64H134.642H134.643H134.645H134.647H134.649H134.65H134.652H134.654H134.656H134.657H134.659H134.661H134.663H134.664H134.666H134.668H134.67H134.671H134.673H134.675H134.676H134.678H134.68H134.681H134.683H134.685H134.686H134.688H134.69H134.691H134.693H134.695H134.696H134.698H134.7H134.701H134.703H134.704H134.706H134.708H134.709H134.711H134.712H134.714H134.716H134.717H134.719H134.72H134.722H134.723H134.725H134.726H134.728H134.73H134.731H134.733H134.734H134.736H134.737H134.739H134.74H134.742H134.743H134.744H134.746H134.747H134.749H134.75H134.752H134.753H134.755H134.756H134.757H134.759H134.76H134.762H134.763H134.765H134.766H134.767H134.769H134.77H134.771H134.773H134.774H134.775H134.777H134.778H134.78H134.781H134.782H134.783H134.785H134.786H134.787H134.789H134.79H134.791H134.793H134.794H134.795H134.796H134.798H134.799H134.8H134.801H134.803H134.804H134.805H134.806H134.807H134.809H134.81H134.811H134.812H134.813H134.815H134.816H134.817H134.818H134.819H134.82H134.822H134.823H134.824H134.825H134.826H134.827H134.828H134.829H134.83H134.832H134.833H134.834H134.835H134.836H134.837H134.838H134.839H134.84H134.841H134.842H134.906L134.967 137.093C135.338 136.997 135.66 136.767 135.871 136.447L135.919 136.375L135.939 136.291C136.029 135.927 136.036 135.548 135.96 135.181C136.016 134.638 136.015 134.09 135.957 133.547C136.011 132.977 136.012 132.404 135.959 131.834C136.036 131.466 136.029 131.086 135.939 130.721L135.908 130.593L135.818 130.497C135.547 130.21 135.213 129.988 134.843 129.848L134.758 129.816H134.667H132.568Z" fill="#1D1D1B" stroke="#202020"/>
<path d="M142.686 137.575V128.892H144.809H144.856L144.902 128.883C145.499 128.771 146.111 128.769 146.708 128.879C146.879 128.928 147.038 129.012 147.174 129.127C147.306 129.239 147.413 129.377 147.489 129.532C147.64 130.054 147.637 130.61 147.479 131.131L147.44 131.259L147.471 131.39C147.589 131.896 147.595 132.422 147.486 132.93C147.314 133.219 147.058 133.451 146.752 133.595C146.146 133.718 145.52 133.714 144.915 133.584L144.863 133.573H144.809H143.76H143.26V134.073V137.383L142.686 137.575ZM143.348 132.849V133.349H143.848H146.034H146.215L146.354 133.233L146.878 132.796L147.021 132.678L147.051 132.496C147.105 132.18 147.109 131.859 147.065 131.543C147.11 131.249 147.105 130.95 147.049 130.658L147.021 130.507L146.912 130.398L146.387 129.873L146.241 129.727H146.034H143.848V130.052H143.348V130.227V130.727V132.849Z" fill="#1D1D1B" stroke="#202020"/>
<path d="M150.517 134.625C150.502 133.943 150.678 133.27 151.027 132.682L151.036 132.666L151.046 132.652C151.199 132.432 151.401 132.251 151.636 132.122C151.871 131.994 152.133 131.923 152.4 131.913L150.517 134.625ZM150.517 134.625C150.486 135.292 150.664 135.952 151.026 136.514C151.165 136.768 151.369 136.98 151.617 137.13C151.872 137.284 152.164 137.365 152.462 137.365C152.76 137.365 153.052 137.284 153.308 137.13C153.556 136.98 153.76 136.768 153.898 136.514C154.268 135.941 154.445 135.266 154.405 134.586C154.414 133.918 154.239 133.259 153.898 132.683L153.889 132.667L153.878 132.652C153.714 132.415 153.492 132.223 153.234 132.094C152.975 131.965 152.689 131.903 152.401 131.913L150.517 134.625ZM149.944 134.57L149.942 134.533L149.935 134.496C149.822 133.954 149.817 133.396 149.92 132.853C150.163 132.438 150.484 132.072 150.865 131.777C151.232 131.557 151.651 131.437 152.08 131.427L152.09 131.427L152.099 131.426C152.457 131.404 152.814 131.477 153.135 131.637C153.455 131.797 153.728 132.039 153.925 132.338L153.929 132.345L153.934 132.352C154.413 133.028 154.657 133.841 154.629 134.668L154.627 134.726L154.639 134.783C154.754 135.365 154.758 135.963 154.649 136.546C154.47 136.942 154.195 137.289 153.851 137.554C153.461 137.665 153.047 137.657 152.661 137.531L152.579 137.505L152.493 137.507C152.169 137.515 151.848 137.449 151.553 137.314C151.259 137.18 150.999 136.979 150.794 136.728L150.794 136.728L150.792 136.725C150.286 136.116 149.988 135.361 149.944 134.57Z" fill="#1D1D1B" stroke="#202020"/>
<path d="M157.203 137.768V128.892H157.777V137.768H157.203Z" fill="#1D1D1B" stroke="#202020"/>
<path d="M159.329 136.259H160.903C160.914 136.408 160.954 136.554 161.022 136.687C161.09 136.821 161.183 136.94 161.297 137.038C161.41 137.135 161.542 137.209 161.685 137.256C161.827 137.302 161.978 137.32 162.127 137.308C162.41 137.408 162.719 137.408 163.002 137.308C163.062 137.138 163.062 136.953 163.002 136.783C163.01 136.638 163.01 136.492 163.002 136.346H162.477C161.613 136.164 160.786 135.839 160.028 135.385C159.811 135.184 159.637 134.94 159.517 134.67C159.397 134.4 159.333 134.108 159.329 133.812C159.326 133.502 159.386 133.195 159.507 132.909C159.627 132.623 159.805 132.365 160.028 132.151C160.552 131.742 161.2 131.526 161.865 131.539C162.477 131.516 163.084 131.668 163.614 131.976C164.041 132.378 164.345 132.893 164.488 133.462H163.002C162.958 133.199 162.817 132.963 162.606 132.801C162.395 132.638 162.13 132.562 161.865 132.588H161.078" stroke="#202020"/>
<path d="M167.484 135.996V137.768H166.648V128.892H167.222V133.636V135.241L168.133 133.92L169.733 131.601H170.643L169.249 133.419L169.062 133.663L169.195 133.94L171.037 137.768H170.491L169.138 134.825L168.782 134.05L168.28 134.74L167.58 135.701L167.484 135.833V135.996Z" fill="#1D1D1B" stroke="#202020"/>
<path d="M172.915 132.787C172.935 132.742 172.957 132.697 172.982 132.653C173.099 132.442 173.258 132.257 173.45 132.11L173.461 132.101L173.473 132.091C173.647 131.94 173.851 131.825 174.071 131.756C174.292 131.686 174.524 131.663 174.754 131.687L174.855 131.697L174.952 131.668C175.334 131.551 175.742 131.548 176.124 131.661C176.317 131.743 176.48 131.88 176.595 132.054C176.65 132.559 176.646 133.07 176.583 133.575L176.58 133.606V133.637V135.792C176.525 136.267 176.524 136.746 176.576 137.22C176.559 137.373 176.551 137.527 176.55 137.681H176.006V137.395V136.129C176.079 135.707 176.076 135.276 175.997 134.855L175.853 134.882L175.768 134.36H174.806H174.739L174.674 134.378C174.281 134.485 173.907 134.655 173.568 134.881L173.408 134.987L173.36 135.172C173.3 135.404 173.289 135.646 173.328 135.881C173.248 136.18 173.265 136.499 173.378 136.79L173.45 136.972L173.625 137.058C173.789 137.138 173.969 137.179 174.15 137.179C174.263 137.179 174.376 137.163 174.484 137.131C174.683 137.17 174.888 137.167 175.087 137.122C174.932 137.348 174.731 137.538 174.498 137.681H173.669V137.681L173.658 137.682C173.284 137.69 172.92 137.559 172.637 137.314C172.373 136.964 172.235 136.535 172.245 136.096L172.246 136.049L172.239 136.003C172.195 135.738 172.191 135.469 172.226 135.204C172.339 135.025 172.497 134.877 172.684 134.775L172.709 134.761L172.732 134.745C173.03 134.536 173.366 134.389 173.721 134.311H175.243H175.704L175.742 133.852C175.765 133.563 175.765 133.273 175.742 132.984L175.704 132.525H175.243H174.631H173.993C173.989 132.524 173.984 132.523 173.979 132.522C173.892 132.509 173.775 132.51 173.648 132.561C173.523 132.61 173.428 132.691 173.355 132.787H172.915ZM175.437 136.605L175.195 136.962L175.093 136.579C175.118 136.549 175.167 136.49 175.267 136.37C175.33 136.414 175.394 136.494 175.437 136.605ZM175.454 136.927C175.453 136.927 175.453 136.927 175.454 136.927L175.454 136.927Z" fill="#1D1D1B" stroke="#202020"/>
<path d="M108.702 152.37L108.794 152.335L108.865 152.267C109.213 151.939 109.424 151.491 109.456 151.015C109.516 150.748 109.511 150.471 109.443 150.206L109.346 149.831H108.959H108.607L107.201 149.335L107.166 149.322L107.129 149.315C106.665 149.226 106.231 149.022 105.867 148.721L105.834 148.694L105.798 148.673C105.535 148.522 105.336 148.281 105.238 147.994C105.14 147.663 105.141 147.31 105.24 146.979L105.279 146.85L105.248 146.72C105.156 146.33 105.151 145.925 105.233 145.534C105.399 145.261 105.628 145.031 105.901 144.863C106.361 144.784 106.831 144.789 107.29 144.878L107.35 144.89L107.411 144.887C108.068 144.852 108.715 145.055 109.233 145.457C109.466 145.706 109.648 145.997 109.77 146.314C109.838 146.491 109.887 146.673 109.916 146.859H109.186C109.093 146.536 108.951 146.228 108.763 145.946L108.695 145.843L108.587 145.784C108.192 145.568 107.748 145.455 107.298 145.455C106.847 145.455 106.403 145.568 106.008 145.784L105.845 145.873L105.78 146.048C105.687 146.296 105.668 146.564 105.724 146.82C105.692 146.939 105.675 147.061 105.675 147.184C105.675 147.373 105.714 147.56 105.79 147.734L105.849 147.869L105.971 147.95C106.47 148.282 107.03 148.514 107.618 148.632C108.204 148.798 108.765 149.038 109.289 149.347C109.534 149.539 109.735 149.78 109.879 150.055C109.954 150.491 109.95 150.938 109.867 151.373L109.857 151.425L109.858 151.478C109.873 152.145 109.642 152.794 109.211 153.303C108.937 153.551 108.616 153.743 108.268 153.867C107.946 153.982 107.606 154.037 107.266 154.031C106.429 153.543 105.806 153.053 105.358 152.456C104.981 151.953 104.711 151.352 104.557 150.568H105.082C105.151 151.05 105.329 151.474 105.654 151.798C106.068 152.212 106.643 152.388 107.295 152.403C107.753 152.556 108.25 152.545 108.702 152.37Z" fill="#1D1D1B" stroke="#202020"/>
<path d="M113.845 147.245C113.945 147.044 114.106 146.879 114.306 146.773C114.535 146.704 114.78 146.708 115.007 146.784L115.088 146.81L115.173 146.809C115.436 146.805 115.696 146.869 115.926 146.996C116.157 147.123 116.35 147.307 116.487 147.532L116.493 147.541L116.499 147.55C116.972 148.252 117.189 149.094 117.116 149.936L117.111 149.983L117.116 150.029C117.202 150.899 116.983 151.772 116.498 152.499L116.489 152.513L116.481 152.527C116.345 152.762 116.152 152.959 115.918 153.099C115.685 153.239 115.42 153.317 115.149 153.326L115.09 153.328L115.034 153.343C114.866 153.389 114.691 153.396 114.521 153.366C114.468 153.321 114.396 153.259 114.314 153.187C114.141 153.036 113.933 152.848 113.77 152.685L112.916 151.832V153.039V156.122H112.43V146.634H112.829V147.183L113.727 147.342C113.61 147.447 113.509 147.569 113.429 147.705C113.071 148.249 112.891 148.89 112.916 149.541C112.881 150.27 113.056 150.995 113.42 151.628L113.426 151.638L113.432 151.648C113.581 151.88 113.785 152.071 114.028 152.203C114.27 152.335 114.541 152.404 114.817 152.403L114.824 152.403L114.832 152.403C115.095 152.394 115.352 152.318 115.578 152.183C115.803 152.047 115.991 151.857 116.123 151.628L116.15 151.582L116.166 151.53C116.363 150.911 116.377 150.249 116.209 149.624C116.353 149.034 116.34 148.415 116.17 147.83L116.15 147.761L116.111 147.7C115.963 147.468 115.758 147.277 115.516 147.145C115.273 147.013 115.002 146.944 114.726 146.945L114.719 146.945L114.711 146.946C114.448 146.954 114.191 147.03 113.965 147.165C113.924 147.19 113.884 147.217 113.845 147.245Z" fill="#1D1D1B" stroke="#202020"/>
<path d="M119.688 152.802V151.879H120.262V152.802H119.688Z" fill="#1D1D1B" stroke="#202020"/>
<path d="M126.62 152.053H129.356V152.722L125.021 152.793V151.981L127.196 149.055L127.201 149.048L127.206 149.041L127.993 147.905L128.537 147.12H127.582H125.284V146.547H129.181V147.196L127.005 150.208L126.22 151.253L125.62 152.053H126.62Z" fill="#1D1D1B" stroke="#202020"/>
<path d="M134.774 149.71C134.729 149.366 134.749 149.015 134.833 148.678C134.922 148.324 135.079 147.991 135.296 147.698C135.435 147.452 135.635 147.245 135.878 147.099C136.133 146.945 136.426 146.864 136.723 146.864C137.021 146.864 137.313 146.945 137.569 147.099C137.817 147.248 138.02 147.461 138.159 147.715C138.529 148.287 138.706 148.962 138.667 149.642C138.675 150.311 138.5 150.97 138.159 151.546L138.15 151.562L138.139 151.577C137.975 151.814 137.753 152.005 137.495 152.135C137.236 152.264 136.95 152.326 136.662 152.315M134.774 149.71L136.68 151.816M134.774 149.71C134.743 150.372 134.929 151.027 135.306 151.575L135.306 151.575L135.307 151.577C135.46 151.796 135.662 151.978 135.897 152.106L136.137 151.667M134.774 149.71L136.137 151.667M136.662 152.315L136.68 151.816M136.662 152.315C136.662 152.315 136.662 152.315 136.662 152.315L136.68 151.816M136.662 152.315C136.394 152.306 136.133 152.234 135.897 152.106L136.137 151.667M136.68 151.816C136.489 151.809 136.304 151.758 136.137 151.667M134.198 149.721L134.217 149.618L134.193 149.516C134.066 148.978 134.062 148.418 134.18 147.878C134.402 147.449 134.726 147.082 135.125 146.81L135.132 146.805L135.139 146.8C135.474 146.554 135.884 146.433 136.299 146.459L136.33 146.461L136.36 146.459C136.718 146.437 137.075 146.51 137.396 146.67C137.716 146.83 137.989 147.072 138.186 147.371L138.191 147.379L138.197 147.388C138.664 148.037 138.907 148.821 138.89 149.62L138.89 149.62L138.89 149.629C138.889 150.252 138.755 150.867 138.498 151.434L138.493 151.446L138.488 151.458C138.301 151.934 137.971 152.34 137.543 152.621C137.183 152.854 136.762 152.978 136.332 152.976L136.329 152.976C135.985 152.976 135.644 152.899 135.333 152.75C135.036 152.607 134.773 152.403 134.562 152.15C134.174 151.404 134.046 150.549 134.198 149.721ZM135.718 151.291L135.718 151.291L135.718 151.291Z" fill="#1D1D1B" stroke="#202020"/>
<path d="M141.464 152.802V151.879H142.039V152.802H141.464Z" fill="#1D1D1B" stroke="#202020"/>
<path d="M144.991 148.58L144.858 148.447L144.836 149.622C144.823 150.298 144.998 150.965 145.343 151.547L145.352 151.563L145.363 151.578C145.527 151.815 145.749 152.006 146.007 152.136C146.265 152.265 146.552 152.327 146.84 152.316M144.991 148.58L146.84 152.316C146.84 152.316 146.84 152.316 146.84 152.316M144.991 148.58C145.064 148.282 145.18 147.995 145.337 147.727C145.476 147.468 145.682 147.251 145.933 147.1C146.188 146.946 146.481 146.865 146.779 146.865C147.076 146.865 147.369 146.946 147.624 147.1C147.872 147.249 148.076 147.462 148.215 147.716C148.581 148.283 148.759 148.952 148.723 149.626M144.991 148.58L148.723 149.626M146.84 152.316C147.108 152.307 147.369 152.235 147.604 152.107C147.84 151.979 148.042 151.798 148.195 151.578L148.196 151.576C148.589 151.005 148.775 150.317 148.723 149.626M146.84 152.316L148.723 149.626M144.262 149.629L144.262 149.625C144.254 149.038 144.385 148.457 144.647 147.931L144.658 147.908L144.667 147.885C144.831 147.447 145.131 147.073 145.523 146.816L145.532 146.81L145.54 146.804C145.9 146.545 146.34 146.423 146.781 146.459L146.809 146.461L146.836 146.461C147.182 146.451 147.525 146.53 147.832 146.689C148.139 146.849 148.401 147.084 148.591 147.373L148.597 147.381L148.602 147.389C149.069 148.038 149.312 148.822 149.296 149.621L149.294 149.678L149.306 149.734C149.426 150.306 149.431 150.896 149.32 151.47C149.076 151.912 148.753 152.306 148.367 152.632C148.002 152.849 147.586 152.968 147.161 152.977L147.161 152.977L147.156 152.978C146.814 152.989 146.475 152.917 146.167 152.77C145.859 152.622 145.591 152.402 145.386 152.129L145.359 152.093L145.327 152.063C144.992 151.751 144.725 151.375 144.542 150.956C144.359 150.538 144.264 150.086 144.262 149.629Z" fill="#1D1D1B" stroke="#202020"/>
<path d="M151.52 152.802V151.879H152.094V152.802H151.52Z" fill="#1D1D1B" stroke="#202020"/>
<path d="M330.609 124.742V35.4843V34.9843H330.109H297.117V24.0104H376.743V34.9843H343.576H343.076V35.4843V124.661L330.609 124.742Z" fill="#1D1D1B" stroke="#202020"/>
<path d="M458.371 24.0994H470.835V82.3326V82.3408L470.835 82.349C471.104 90.5562 469.93 98.747 467.366 106.549C465.011 112.598 460.684 117.678 455.084 120.967C447.915 124.965 439.771 126.88 431.57 126.495L431.548 126.494L431.526 126.495C423.515 126.831 415.546 125.167 408.339 121.655C402.612 118.606 398.122 113.664 395.636 107.674C392.743 99.559 391.447 90.9611 391.821 82.3543L391.822 82.3435V82.3326V24.0994H404.288V82.2329C403.956 88.9056 404.793 95.585 406.759 101.97L406.765 101.989L406.772 102.008C408.477 106.294 411.662 109.827 415.75 111.968L415.752 111.969C420.323 114.334 425.422 115.496 430.566 115.347C434.425 115.745 438.325 115.344 442.021 114.168C445.729 112.989 449.152 111.057 452.077 108.492L452.124 108.45L452.16 108.398C457.465 100.63 459.764 91.2001 458.631 81.8643L458.371 24.0994ZM412.109 16.8937V3.64728H424.139V16.8937H412.109ZM438.343 16.8937V3.64728H450.373V16.8937H438.343Z" fill="#1D1D1B" stroke="#202020"/>
<path d="M529.967 114.281C531.537 108.703 533.368 103.21 535.377 97.6237C535.377 97.6227 535.377 97.6218 535.378 97.6208L562.8 24.0979H575.449L535.966 124.745H523.095L484.131 24.0979H497.564L523.68 97.6181C525.775 103.551 527.521 109.135 529.005 114.284L529.492 115.97L529.967 114.281Z" fill="#1D1D1B" stroke="#202020"/>
<path d="M579.257 94.4763L579.257 94.4763L579.261 94.4784C581.775 95.9063 583.83 98.0195 585.188 100.571L585.187 100.571L585.191 100.578C586.628 103.182 587.389 106.104 587.403 109.078C587.401 112.043 586.67 114.963 585.276 117.581C583.896 120.143 581.844 122.282 579.34 123.767L579.34 123.767C576.917 125.206 574.15 125.966 571.331 125.966C568.513 125.966 565.746 125.206 563.323 123.767L563.323 123.767C560.819 122.282 558.766 120.143 557.387 117.58L557.387 117.58L557.384 117.574C555.946 114.979 555.214 112.051 555.26 109.084L555.26 109.084L555.26 109.074C555.244 106.107 555.975 103.185 557.386 100.575C558.775 98.0161 560.859 95.903 563.4 94.4798L563.4 94.4799L563.406 94.4762C565.805 93.0861 568.517 92.3274 571.289 92.2712C574.09 92.313 576.834 93.0723 579.257 94.4763ZM571.29 94.1552V94.1552L571.283 94.1553C568.834 94.1779 566.431 94.8326 564.309 96.0554C562.014 97.3246 560.15 99.2491 558.956 101.583C557.652 103.834 556.968 106.389 556.971 108.99L556.971 108.99C556.977 111.578 557.629 114.124 558.869 116.396L558.869 116.396L558.872 116.401C560.116 118.61 561.914 120.456 564.09 121.757C566.265 123.059 568.743 123.771 571.278 123.823V123.823L571.285 123.823C573.811 123.836 576.29 123.147 578.446 121.833C580.713 120.594 582.549 118.695 583.711 116.388C584.95 114.119 585.599 111.575 585.599 108.989C585.599 106.403 584.95 103.858 583.71 101.589C582.516 99.2521 580.651 97.3254 578.354 96.0552C576.204 94.8212 573.77 94.1664 571.29 94.1552ZM572.486 110.671C572.996 110.894 573.475 111.184 573.909 111.532C574.845 112.656 575.696 113.848 576.453 115.099L578.121 118.016H575.786L574.36 115.323C573.608 113.681 572.569 112.186 571.292 110.908L571.259 110.875L571.221 110.849C570.44 110.314 569.497 110.067 568.555 110.15H566.916H566.416V110.65V118.016H564.53V100.487H570.151H570.164L570.176 100.486C571.651 100.412 573.127 100.581 574.547 100.988C575.363 101.275 576.067 101.816 576.553 102.532C577.01 103.264 577.254 104.109 577.259 104.971L577.259 104.971L577.259 104.981C577.273 105.575 577.169 106.165 576.953 106.719C576.737 107.272 576.413 107.777 576 108.204L576 108.204L575.992 108.213C575.568 108.673 575.056 109.042 574.486 109.3C573.916 109.558 573.3 109.698 572.675 109.713L572.486 110.671ZM566.416 108.115V108.615H566.916H570.388C571.682 108.742 572.982 108.439 574.087 107.753L574.115 107.736L574.14 107.716C574.509 107.414 574.804 107.033 575.002 106.6C575.2 106.169 575.297 105.699 575.286 105.225C575.285 104.628 575.103 104.046 574.764 103.555C574.415 103.014 573.915 102.587 573.326 102.326L573.262 102.298L573.192 102.288C572.201 102.152 571.196 102.15 570.204 102.284H566.916H566.416V102.784V108.115Z" fill="#1D1D1B" stroke="#202020"/>
<path d="M304.611 164.908L311.406 144.362H316.369L306.67 171.505H301.34L291.556 144.362H296.695L303.663 164.911L304.142 166.325L304.611 164.908Z" fill="#1D1D1B" stroke="#202020"/>
<path d="M316.706 161.973L316.707 161.949L316.705 161.924C316.539 159.196 317.432 156.51 319.199 154.425C320.055 153.551 321.076 152.856 322.203 152.381C323.336 151.903 324.552 151.657 325.782 151.657C327.011 151.657 328.228 151.903 329.36 152.381C330.482 152.854 331.499 153.545 332.352 154.413C334.133 156.825 335 159.784 334.809 162.765H321.715H321.221L321.215 163.26C321.199 164.744 321.703 166.187 322.639 167.339L322.652 167.355L322.667 167.37C323.121 167.842 323.668 168.215 324.273 168.467C324.87 168.716 325.511 168.841 326.158 168.835C326.597 168.869 327.037 168.814 327.455 168.675C327.875 168.536 328.262 168.313 328.594 168.02C329.226 167.525 329.696 166.858 329.949 166.103L334.337 166.81C333.749 168.309 332.733 169.607 331.41 170.538C329.394 171.768 327.013 172.258 324.675 171.924C322.344 171.591 320.201 170.46 318.612 168.724C317.282 166.731 316.615 164.368 316.706 161.973ZM329.585 160.619H330.069L330.085 160.136C330.134 158.71 329.657 157.315 328.746 156.216L328.735 156.203L328.724 156.191C328.317 155.763 327.828 155.42 327.286 155.183C326.746 154.947 326.164 154.821 325.574 154.812C324.939 154.793 324.307 154.916 323.726 155.172C323.143 155.429 322.625 155.814 322.21 156.297L322.202 156.306L322.195 156.316C321.349 157.405 320.909 158.756 320.953 160.135L320.969 160.619H321.453H329.585Z" fill="#1D1D1B" stroke="#202020"/>
<path d="M344.386 165.726V171.506H339.965V152.142H343.949V154.526V156.445L344.886 154.77C345.44 153.779 346.192 152.913 347.097 152.226C347.681 151.853 348.367 151.671 349.06 151.704L349.068 151.704L349.076 151.704C350.11 151.72 351.126 151.962 352.054 152.409L350.744 156.13C350.054 155.756 349.286 155.543 348.497 155.512C347.679 155.464 346.873 155.721 346.235 156.233L346.217 156.248L346.2 156.264C345.494 156.95 345.016 157.836 344.832 158.802L344.832 158.802L344.832 158.806C344.417 161.088 344.268 163.41 344.386 165.726Z" fill="#1D1D1B" stroke="#202020"/>
<path d="M355.793 148.606V144.624H360.128V148.606H355.793ZM355.793 171.767V152.403H360.128V171.767H355.793Z" fill="#1D1D1B" stroke="#202020"/>
<path d="M372.87 152.49H376.393V155.773H372.87H372.37V156.273V171.855H367.949V156.273V155.773H367.449H364.538V152.141H367.011H367.511V151.641V150.067V150.057L367.511 150.046C367.458 148.815 367.623 147.585 368 146.412C368.385 145.654 369.005 145.039 369.768 144.66C370.861 144.125 372.07 143.872 373.286 143.925L373.301 143.925L373.315 143.925C374.63 143.904 375.938 144.086 377.195 144.466L376.661 147.333C375.977 147.272 375.287 147.288 374.605 147.38C373.867 147.328 373.137 147.555 372.558 148.016L372.441 148.11L372.395 148.253C372.15 149.009 372.142 149.821 372.37 150.581V151.99V152.49H372.87Z" fill="#1D1D1B" stroke="#202020"/>
<path d="M379.491 148.606V144.624H383.912V148.606H379.491ZM379.491 171.767V152.403H383.912V171.767H379.491Z" fill="#1D1D1B" stroke="#202020"/>
<path d="M398.334 172.03L398.309 172.029L398.285 172.031C396.856 172.123 395.425 171.87 394.113 171.294C392.808 170.72 391.66 169.844 390.762 168.737C389.427 166.741 388.756 164.373 388.848 161.973L388.849 161.951L388.848 161.928C388.704 159.185 389.631 156.493 391.433 154.42C392.222 153.547 393.189 152.853 394.268 152.384C395.349 151.915 396.518 151.683 397.696 151.704L397.72 151.704L397.743 151.703C399.023 151.605 400.309 151.807 401.497 152.294C402.678 152.777 403.73 153.528 404.571 154.487C406.322 156.915 407.162 159.876 406.954 162.853H393.945H393.478L393.446 163.319C393.395 164.069 393.496 164.821 393.744 165.531C393.991 166.24 394.38 166.891 394.886 167.446C395.317 167.929 395.849 168.311 396.445 168.566C397.033 168.818 397.67 168.939 398.31 168.922C399.218 168.974 400.113 168.685 400.819 168.111L400.832 168.1L400.845 168.088C401.435 167.537 401.885 166.856 402.161 166.101L406.486 166.81C405.918 168.302 404.928 169.601 403.63 170.545C402.059 171.573 400.21 172.092 398.334 172.03ZM401.81 160.619L402.282 160.624L402.314 160.153C402.363 159.438 402.269 158.721 402.037 158.043C401.805 157.364 401.441 156.739 400.964 156.203L400.965 156.203L400.96 156.198C400.553 155.752 400.057 155.396 399.504 155.152C398.951 154.908 398.353 154.782 397.749 154.782C397.145 154.782 396.547 154.908 395.994 155.152C395.441 155.396 394.945 155.752 394.538 156.198L394.529 156.207L394.522 156.216C393.63 157.292 393.182 158.668 393.271 160.063L393.3 160.526L393.764 160.532L401.81 160.619Z" fill="#1D1D1B" stroke="#202020"/>
<path d="M430.082 171.505H425.751V169.033V167.349L424.832 168.761C424.184 169.755 423.3 170.575 422.258 171.145C421.218 171.715 420.053 172.018 418.867 172.029C417.799 172.02 416.747 171.774 415.786 171.308C414.829 170.844 413.987 170.173 413.32 169.344C411.759 167.13 410.921 164.488 410.921 161.779C410.921 159.073 411.758 156.433 413.316 154.22C414.015 153.402 414.889 152.751 415.873 152.315C416.864 151.877 417.942 151.667 419.025 151.703L419.025 151.703L419.037 151.703C420.1 151.713 421.147 151.952 422.108 152.404C423.069 152.856 423.921 153.511 424.606 154.323L425.488 155.369V154V144.362H429.913L430.082 171.505ZM416.928 166.362L416.936 166.378L416.944 166.394C417.353 167.123 417.953 167.726 418.678 168.141C419.402 168.554 420.225 168.764 421.058 168.747C421.745 168.746 422.422 168.586 423.037 168.279C423.652 167.971 424.188 167.524 424.601 166.974L424.606 166.968L424.61 166.961C425.654 165.476 426.15 163.675 426.014 161.867C426.154 160.023 425.698 158.183 424.712 156.618L424.699 156.599L424.685 156.58C424.258 156.024 423.707 155.574 423.075 155.267C422.445 154.96 421.753 154.804 421.052 154.811C420.365 154.807 419.685 154.953 419.061 155.24C418.435 155.527 417.881 155.949 417.436 156.474L417.424 156.489L417.413 156.504C416.379 157.93 415.88 159.674 416.005 161.43C415.885 163.126 416.203 164.824 416.928 166.362Z" fill="#1D1D1B" stroke="#202020"/>
<path d="M457.865 172.03C456.883 172.038 455.913 171.816 455.032 171.384C453.977 170.846 453.05 170.088 452.314 169.16L451.423 168.036V169.471V179.285H447.004L447.173 152.141H450.985V154.613V156.201L451.895 154.899C452.558 153.951 453.428 153.166 454.439 152.603L454.446 152.599L454.452 152.595C455.48 151.982 456.66 151.673 457.856 151.704L457.867 151.704L457.878 151.704C458.954 151.685 460.021 151.91 460.998 152.363C461.974 152.815 462.835 153.484 463.516 154.317L463.516 154.317L463.519 154.321C465.23 156.373 466.095 158.998 465.94 161.663L465.938 161.693L465.94 161.723C466.11 164.473 465.244 167.187 463.514 169.332L463.513 169.333C462.836 170.178 461.977 170.859 461 171.326C460.023 171.793 458.954 172.034 457.871 172.03V172.03L457.865 172.03ZM453.003 166.879L453.008 166.886L453.014 166.893C453.454 167.461 454.015 167.922 454.658 168.243C455.293 168.561 455.991 168.733 456.701 168.747C457.465 168.828 458.238 168.697 458.932 168.367C459.635 168.034 460.23 167.511 460.65 166.858L460.656 166.849L460.662 166.839C461.567 165.291 462.044 163.53 462.044 161.736C462.044 159.943 461.567 158.182 460.662 156.633L460.645 156.604L460.624 156.577C460.192 156.027 459.641 155.582 459.013 155.276C458.384 154.97 457.694 154.811 456.995 154.811C456.295 154.811 455.605 154.97 454.976 155.276C454.352 155.579 453.805 156.02 453.375 156.565C452.169 157.925 451.505 159.681 451.51 161.498C451.354 163.412 451.883 165.318 453.003 166.879Z" fill="#1D1D1B" stroke="#202020"/>
<path d="M475.556 165.726V171.506H471.134V152.142H475.119V154.526V156.445L476.055 154.77C476.609 153.78 477.36 152.915 478.263 152.229C478.855 151.863 479.541 151.68 480.236 151.704L480.236 151.704L480.246 151.704C481.279 151.72 482.295 151.962 483.223 152.409L481.915 156.125C481.227 155.746 480.455 155.534 479.663 155.512C478.847 155.464 478.042 155.721 477.404 156.233L477.386 156.248L477.369 156.264C476.663 156.95 476.186 157.836 476.002 158.802L476.002 158.802L476.001 158.806C475.587 161.088 475.437 163.41 475.556 165.726Z" fill="#1D1D1B" stroke="#202020"/>
<path d="M485.391 161.536L485.391 161.527L485.391 161.517C485.388 159.793 485.847 158.1 486.721 156.614L486.729 156.601L486.736 156.587C487.508 155.061 488.714 153.798 490.201 152.955C491.827 152.112 493.635 151.682 495.466 151.704L495.479 151.704L495.493 151.704C496.815 151.649 498.133 151.872 499.364 152.359C500.594 152.845 501.709 153.583 502.636 154.526L502.637 154.527C503.576 155.477 504.312 156.609 504.798 157.853C505.285 159.097 505.512 160.428 505.466 161.763L505.465 161.78L505.466 161.797C505.514 163.146 505.287 164.49 504.801 165.749C504.314 167.008 503.577 168.155 502.635 169.122L502.635 169.122C501.708 170.073 500.594 170.822 499.364 171.322C498.133 171.823 496.813 172.064 495.485 172.03L495.485 172.03L495.472 172.03C493.694 172.032 491.944 171.602 490.37 170.776L490.364 170.773L490.357 170.769C488.818 170.02 487.55 168.811 486.73 167.31C485.777 165.539 485.315 163.546 485.391 161.536ZM491.492 156.491C490.329 157.989 489.787 159.874 489.972 161.757C489.904 163.452 490.441 165.12 491.494 166.459L491.504 166.471L491.514 166.483C492.012 167.04 492.624 167.483 493.308 167.783C493.99 168.082 494.728 168.232 495.472 168.223C496.206 168.231 496.932 168.08 497.6 167.779C498.271 167.477 498.867 167.033 499.348 166.477L499.364 166.458L499.379 166.438C500.401 164.984 500.95 163.251 500.95 161.474C500.95 159.697 500.401 157.963 499.379 156.51L499.364 156.49L499.348 156.471C498.867 155.915 498.271 155.47 497.6 155.169C496.932 154.868 496.205 154.716 495.472 154.725C494.728 154.715 493.99 154.865 493.308 155.165C492.624 155.465 492.012 155.908 491.514 156.465L491.502 156.478L491.492 156.491Z" fill="#1D1D1B" stroke="#202020"/>
<path d="M523.482 168.743C522.75 169.77 521.793 170.614 520.683 171.213C519.696 171.721 518.608 172 517.498 172.029C516.417 172.032 515.35 171.792 514.374 171.326C513.398 170.859 512.539 170.178 511.863 169.334C510.176 167.204 509.342 164.523 509.522 161.812L509.524 161.775L509.521 161.738C509.299 159.029 510.136 156.339 511.856 154.233C512.557 153.409 513.435 152.753 514.425 152.315C515.416 151.877 516.493 151.667 517.576 151.703L517.576 151.703L517.588 151.703C518.651 151.713 519.698 151.952 520.659 152.404C521.621 152.856 522.472 153.511 523.157 154.323L524.039 155.369V154V144.362H528.461V171.505H524.389V169.033V167.471L523.482 168.743ZM514.955 166.362L514.962 166.378L514.971 166.394C515.38 167.123 515.979 167.726 516.705 168.141C517.429 168.554 518.251 168.764 519.085 168.747C519.772 168.746 520.449 168.586 521.063 168.279C521.679 167.971 522.214 167.524 522.628 166.974L522.632 166.968L522.637 166.961C523.681 165.476 524.176 163.675 524.041 161.867C524.18 160.023 523.724 158.183 522.738 156.618L522.726 156.599L522.712 156.581C522.275 156.01 521.708 155.552 521.058 155.244C520.41 154.937 519.698 154.789 518.981 154.811C518.31 154.821 517.65 154.974 517.043 155.261C516.436 155.547 515.896 155.961 515.462 156.474L515.45 156.489L515.439 156.504C514.405 157.93 513.907 159.674 514.031 161.43C513.912 163.126 514.23 164.824 514.955 166.362Z" fill="#1D1D1B" stroke="#202020"/>
<path d="M548.176 171.485V168.947V167.243L547.256 168.677C546.589 169.715 545.66 170.559 544.562 171.124C543.44 171.699 542.2 172.009 540.939 172.03C539.71 172.032 538.5 171.722 537.423 171.131L537.423 171.131L537.418 171.128C536.49 170.632 535.766 169.824 535.373 168.848L535.373 168.848L535.37 168.84C534.804 167.501 534.548 166.053 534.622 164.602L534.622 164.589V164.577V152.142H539.044V160.97C538.883 162.738 538.884 164.516 539.046 166.283L539.05 166.322L539.059 166.359C539.253 167.13 539.734 167.798 540.404 168.227C541.076 168.693 541.877 168.936 542.694 168.922C543.677 168.928 544.635 168.62 545.43 168.044C546.194 167.513 546.776 166.759 547.097 165.885L547.115 165.833L547.123 165.779C547.369 163.919 547.371 162.034 547.127 160.174V151.967H551.461V171.351L548.176 171.485Z" fill="#1D1D1B" stroke="#202020"/>
<path d="M575.458 157.454L571.156 158.229C570.941 157.393 570.507 156.625 569.894 156.009L569.871 155.986L569.845 155.966C569.059 155.356 568.084 155.041 567.09 155.074C566.412 155.053 565.739 155.182 565.117 155.45C564.489 155.722 563.93 156.129 563.479 156.643L563.458 156.668L563.44 156.694C562.469 158.141 562.009 159.868 562.129 161.605C561.994 163.5 562.447 165.39 563.426 167.019L563.441 167.044L563.459 167.067C563.898 167.635 564.47 168.086 565.125 168.379C565.771 168.668 566.478 168.794 567.184 168.748C568.205 168.79 569.202 168.43 569.961 167.745L569.969 167.738L569.976 167.731C570.74 166.982 571.252 166.02 571.451 164.978L575.763 165.685C575.323 167.509 574.324 169.156 572.9 170.391C571.174 171.651 569.072 172.291 566.936 172.206L566.914 172.205L566.892 172.206C565.631 172.266 564.373 172.053 563.202 171.582C562.04 171.114 560.991 170.404 560.127 169.497C558.508 167.333 557.632 164.702 557.632 161.999C557.632 159.297 558.507 156.667 560.124 154.503C561.012 153.611 562.077 152.915 563.252 152.463C564.437 152.006 565.706 151.807 566.975 151.879L567.001 151.88L567.027 151.879C569.011 151.781 570.977 152.298 572.655 153.358C573.957 154.437 574.926 155.857 575.458 157.454Z" fill="#1D1D1B" stroke="#202020"/>
<path d="M580.381 155.336H578.346V152.054H580.381H580.881V151.554V147.819L585.216 145.262V151.554V152.042L585.704 152.054L589.063 152.13V155.424H585.803H585.303V155.924V164.114C585.205 165.091 585.205 166.076 585.304 167.054C585.31 167.283 585.378 167.506 585.499 167.7C585.625 167.902 585.805 168.065 586.018 168.171L586.059 168.191L586.103 168.204C586.49 168.314 586.9 168.319 587.289 168.217C587.832 168.171 588.367 168.061 588.884 167.892L589.282 171.071C588.085 171.522 586.817 171.758 585.537 171.768L585.534 171.768C584.703 171.779 583.879 171.614 583.116 171.284L583.107 171.28L583.097 171.277C582.497 171.045 581.971 170.653 581.578 170.144C581.216 169.581 580.979 168.948 580.88 168.286C580.818 167.059 580.819 165.829 580.881 164.602L580.881 164.589V164.576V155.836V155.336H580.381Z" fill="#1D1D1B" stroke="#202020"/>
<path d="M305.773 211.686V197.502H307.221V215.206H305.366L295.72 200.745L294.804 199.372V201.023V215.206H293.355V197.502H295.212L304.857 211.963L305.773 213.336V211.686Z" fill="#1D1D1B" stroke="#202020"/>
<path d="M311.195 209.004L311.197 208.968L311.194 208.933C311.109 207.977 311.24 207.015 311.577 206.117C311.912 205.223 312.443 204.416 313.131 203.754C314.257 202.797 315.688 202.271 317.167 202.271C318.638 202.271 320.062 202.791 321.186 203.739C322.295 205.042 322.869 206.719 322.789 208.429L322.788 208.452L322.789 208.474C322.847 209.83 322.595 211.182 322.052 212.427C321.575 213.294 320.859 214.007 319.989 214.481L319.981 214.485L319.973 214.49C319.048 215.036 317.989 215.315 316.914 215.294L316.9 215.294L316.887 215.294C316.098 215.323 315.313 215.187 314.579 214.897C313.855 214.61 313.196 214.178 312.646 213.627C311.621 212.311 311.106 210.669 311.195 209.004ZM313.787 213.114L313.802 213.134L313.819 213.153C314.227 213.616 314.729 213.986 315.291 214.24C315.853 214.493 316.463 214.624 317.08 214.624C317.697 214.624 318.306 214.493 318.868 214.24C319.431 213.986 319.932 213.616 320.34 213.153L320.358 213.134L320.373 213.112C321.246 211.883 321.679 210.395 321.603 208.89C321.681 207.409 321.245 205.946 320.369 204.748L320.355 204.73L320.34 204.713C319.932 204.25 319.431 203.88 318.868 203.627C318.306 203.373 317.697 203.242 317.08 203.242C316.463 203.242 315.853 203.373 315.291 203.627C314.729 203.88 314.227 204.25 313.819 204.713L313.801 204.733L313.786 204.754C312.912 205.984 312.48 207.473 312.557 208.979C312.493 210.456 312.926 211.911 313.787 213.114Z" fill="#1D1D1B" stroke="#202020"/>
<path d="M327.288 204.282V202.66H328.911V204.282H327.288ZM327.288 215.207V213.585H328.911V215.207H327.288Z" fill="#1D1D1B" stroke="#202020"/>
<path d="M340.578 206.469L340.579 206.449L340.578 206.429C340.536 204.68 340.765 202.935 341.256 201.256C341.611 200.145 342.248 199.145 343.104 198.353C344.006 197.72 345.087 197.391 346.189 197.414L346.203 197.415L346.218 197.414C347.071 197.382 347.917 197.573 348.674 197.967C349.349 198.34 349.916 198.881 350.321 199.537L350.326 199.544L350.331 199.552C350.858 200.341 351.218 201.229 351.392 202.162L351.394 202.174L351.397 202.185C352.128 205.3 352.128 208.542 351.397 211.656C351.12 212.79 350.474 213.8 349.561 214.528L349.561 214.528L349.551 214.536C348.697 215.251 347.602 215.616 346.489 215.556L346.463 215.555L346.436 215.556C345.7 215.593 344.965 215.455 344.292 215.153C343.626 214.854 343.04 214.403 342.58 213.836C341.134 211.661 340.431 209.077 340.578 206.469ZM343.13 212.872L343.14 212.891L343.151 212.91C343.474 213.429 343.921 213.858 344.452 214.159C344.983 214.46 345.581 214.622 346.191 214.632L346.206 214.633L346.221 214.632C346.833 214.605 347.431 214.438 347.968 214.144L347.728 213.705L347.968 214.144C348.506 213.849 348.968 213.435 349.32 212.934L349.346 212.896L349.365 212.854C350.28 210.847 350.658 208.637 350.462 206.441C350.651 204.273 350.272 202.093 349.365 200.114L349.35 200.082L349.331 200.053C348.994 199.528 348.531 199.097 347.984 198.797C347.439 198.498 346.828 198.34 346.206 198.337C345.625 198.324 345.05 198.457 344.534 198.724C344.016 198.992 343.575 199.386 343.249 199.869L343.231 199.895L343.217 199.923C342.201 201.936 341.759 204.189 341.937 206.436C341.713 208.65 342.127 210.883 343.13 212.872Z" fill="#1D1D1B" stroke="#202020"/>
<path d="M355.179 206.504L355.183 206.469L355.182 206.433C355.155 204.832 355.354 203.234 355.774 201.689C356.13 200.578 356.768 199.578 357.625 198.787C358.512 198.135 359.595 197.805 360.695 197.851L360.718 197.852L360.741 197.851C361.562 197.811 362.378 198.001 363.097 198.401L363.109 198.407L363.121 198.413C363.83 198.759 364.426 199.3 364.837 199.973L364.842 199.981L364.848 199.989C365.374 200.779 365.735 201.667 365.909 202.6L365.91 202.608L365.912 202.616C366.22 204.012 366.363 205.44 366.338 206.869L366.337 206.88L366.338 206.89C366.38 208.641 366.15 210.389 365.658 212.07L365.658 212.07L365.656 212.076C365.342 213.205 364.697 214.214 363.804 214.974C362.95 215.689 361.856 216.054 360.743 215.993L360.717 215.992L360.691 215.993C359.954 216.031 359.22 215.893 358.547 215.591C357.884 215.293 357.3 214.845 356.841 214.281C355.425 211.951 354.839 209.21 355.179 206.504ZM357.734 212.872L357.744 212.892L357.756 212.911C358.078 213.429 358.525 213.859 359.056 214.159C359.587 214.46 360.185 214.623 360.796 214.633L360.811 214.633L360.826 214.632C361.438 214.606 362.035 214.439 362.573 214.144C363.11 213.85 363.572 213.436 363.924 212.934L363.95 212.896L363.97 212.854C364.884 210.847 365.262 208.637 365.066 206.441C365.255 204.273 364.877 202.093 363.969 200.115L363.954 200.083L363.935 200.053C363.598 199.529 363.135 199.097 362.588 198.797C362.043 198.499 361.432 198.341 360.81 198.338C360.23 198.325 359.655 198.458 359.138 198.725C358.621 198.992 358.179 199.386 357.853 199.869L357.836 199.895L357.821 199.923C356.806 201.936 356.363 204.189 356.542 206.436C356.318 208.651 356.731 210.884 357.734 212.872Z" fill="#1D1D1B" stroke="#202020"/>
<path d="M369.783 206.485L369.786 206.452L369.784 206.42C369.707 204.674 369.936 202.928 370.461 201.262C370.816 200.147 371.455 199.144 372.314 198.35C373.201 197.698 374.284 197.368 375.384 197.415L375.405 197.416L375.425 197.415C376.249 197.382 377.066 197.573 377.79 197.967L377.8 197.972L377.81 197.977C378.52 198.322 379.115 198.863 379.526 199.536L379.527 199.536C380.027 200.353 380.391 201.247 380.602 202.181C380.91 203.577 381.053 205.004 381.027 206.433L381.027 206.444L381.027 206.454C381.069 208.205 380.84 209.952 380.348 211.633L380.348 211.633L380.346 211.639C380.031 212.768 379.386 213.778 378.494 214.538C377.639 215.253 376.545 215.617 375.433 215.557L375.407 215.556L375.38 215.557C374.644 215.594 373.909 215.456 373.236 215.154C372.573 214.856 371.988 214.408 371.53 213.844C370.175 211.641 369.562 209.062 369.783 206.485ZM372.24 212.855L372.259 212.897L372.285 212.935C372.637 213.436 373.099 213.85 373.637 214.145C374.174 214.439 374.772 214.606 375.384 214.633L375.399 214.634L375.414 214.633C376.024 214.623 376.622 214.461 377.153 214.16C377.685 213.859 378.132 213.43 378.454 212.911L378.466 212.892L378.476 212.873C379.478 210.886 379.891 208.655 379.669 206.442C379.884 204.257 379.47 202.055 378.475 200.097L378.469 200.085L378.462 200.074C378.152 199.537 377.705 199.094 377.166 198.789L376.92 199.224L377.166 198.789C376.632 198.486 376.026 198.331 375.412 198.338C374.83 198.317 374.252 198.447 373.735 198.714C373.213 198.984 372.771 199.384 372.451 199.877L372.436 199.9L372.424 199.924C371.407 201.938 370.965 204.192 371.144 206.44C370.947 208.637 371.325 210.847 372.24 212.855Z" fill="#1D1D1B" stroke="#202020"/>
<path d="M384.387 206.499L384.392 206.46L384.39 206.42C384.313 204.674 384.542 202.928 385.067 201.261C385.419 200.156 386.05 199.16 386.899 198.37C387.729 197.902 388.665 197.656 389.619 197.656C390.59 197.656 391.544 197.911 392.386 198.397L392.401 198.406L392.416 198.413C393.126 198.759 393.721 199.3 394.133 199.973L394.133 199.973C394.634 200.79 394.997 201.683 395.208 202.618C395.516 204.013 395.659 205.441 395.634 206.87L395.633 206.88L395.634 206.891C395.676 208.642 395.446 210.389 394.954 212.07L394.954 212.07L394.952 212.076C394.638 213.203 393.994 214.211 393.104 214.971C392.234 215.668 391.143 216.031 390.029 215.993L390.008 215.992L389.987 215.993C389.25 216.031 388.516 215.893 387.843 215.591C387.179 215.293 386.594 214.844 386.135 214.279C384.689 211.958 384.073 209.216 384.387 206.499ZM386.846 212.855L386.863 212.89L386.885 212.923C387.227 213.44 387.69 213.865 388.233 214.163C388.776 214.461 389.384 214.622 390.003 214.633L390.012 214.633L390.02 214.633C390.631 214.623 391.229 214.46 391.76 214.159C392.291 213.859 392.738 213.429 393.06 212.911L393.072 212.892L393.082 212.872C394.084 210.885 394.498 208.654 394.275 206.441C394.49 204.256 394.076 202.055 393.081 200.097L393.073 200.081L393.064 200.066C392.739 199.524 392.276 199.079 391.722 198.775C391.17 198.473 390.548 198.322 389.92 198.338C389.344 198.335 388.776 198.471 388.265 198.736C387.751 199.001 387.309 199.388 386.979 199.863L386.956 199.895L386.939 199.931C385.959 201.953 385.548 204.204 385.75 206.442C385.554 208.638 385.932 210.848 386.846 212.855Z" fill="#1D1D1B" stroke="#202020"/>
<path d="M398.983 206.541L398.994 206.485L398.993 206.428C398.948 204.833 399.117 203.239 399.498 201.689C399.882 200.583 400.54 199.593 401.41 198.81C402.241 198.34 403.179 198.093 404.133 198.093C405.105 198.093 406.059 198.349 406.9 198.835L406.92 198.846L406.94 198.855C407.629 199.173 408.193 199.71 408.544 200.381L408.559 200.411L408.579 200.439C409.13 201.215 409.517 202.096 409.717 203.027C409.881 204.433 409.88 205.853 409.714 207.258L409.71 207.293L409.711 207.328C409.753 209.079 409.524 210.826 409.032 212.507L409.031 212.507L409.03 212.513C408.716 213.641 408.072 214.649 407.181 215.409C406.312 216.106 405.221 216.469 404.107 216.431L404.085 216.43L404.064 216.431C403.328 216.468 402.593 216.33 401.92 216.028C401.26 215.732 400.679 215.287 400.221 214.728C398.857 212.23 398.419 209.331 398.983 206.541ZM401.448 212.855L401.463 212.888L401.483 212.918C401.82 213.442 402.283 213.874 402.829 214.173C403.376 214.473 403.989 214.631 404.613 214.634V214.634L404.622 214.633C405.233 214.624 405.831 214.461 406.362 214.16C406.893 213.859 407.34 213.43 407.662 212.912L407.677 212.889L407.688 212.864C408.648 210.866 409.058 208.649 408.876 206.441C409.046 204.262 408.636 202.077 407.688 200.107L407.678 200.087L407.667 200.067C407.342 199.525 406.878 199.079 406.324 198.775C405.772 198.473 405.151 198.322 404.522 198.338C403.946 198.335 403.378 198.472 402.867 198.736C402.353 199.002 401.911 199.389 401.581 199.864L401.558 199.896L401.541 199.931C400.561 201.954 400.15 204.205 400.352 206.442C400.156 208.639 400.534 210.848 401.448 212.855Z" fill="#1D1D1B" stroke="#202020"/>
<path d="M415.576 201.048H415.954C415.953 200.827 415.976 200.607 416.023 200.39C416.113 199.975 416.289 199.584 416.54 199.242L416.566 199.206L416.598 199.176C417.277 198.526 418.182 198.163 419.123 198.164C419.593 198.151 420.061 198.233 420.499 198.407C420.939 198.581 421.339 198.844 421.674 199.179C422.009 199.513 422.272 199.913 422.447 200.353C422.621 200.792 422.704 201.263 422.69 201.735C422.69 201.736 422.69 201.736 422.69 201.737L422.19 201.722C422.175 202.481 421.86 203.204 421.316 203.733L415.576 201.048ZM415.576 201.048L415.569 201.54C415.559 202.252 415.762 202.95 416.152 203.545C416.543 204.14 417.103 204.604 417.76 204.877C418.417 205.151 419.141 205.222 419.838 205.08C420.534 204.939 421.171 204.593 421.668 204.087L415.576 201.048ZM416.637 206.051L418.247 205.614L416.662 205.093C415.927 204.851 415.282 204.396 414.809 203.784C414.386 203.191 414.174 202.473 414.207 201.745L414.208 201.722L414.207 201.698C414.18 201.131 414.284 200.565 414.511 200.044C414.738 199.524 415.082 199.062 415.517 198.696L415.526 198.688L415.535 198.68C416.001 198.247 416.549 197.911 417.147 197.694C417.745 197.477 418.381 197.382 419.016 197.415L419.041 197.416L419.067 197.415C420.406 197.349 421.718 197.804 422.729 198.684C423.152 199.084 423.488 199.566 423.715 200.101C423.944 200.639 424.059 201.219 424.051 201.804L424.051 201.807C424.048 202.513 423.837 203.203 423.446 203.79C422.973 204.399 422.329 204.852 421.597 205.093L420.067 205.596L421.613 206.048C422.547 206.321 423.367 206.891 423.949 207.671C424.531 208.451 424.843 209.4 424.838 210.373L424.838 210.373L424.838 210.382C424.848 211.067 424.711 211.746 424.438 212.374C424.166 212.999 423.765 213.559 423.261 214.018C422.125 214.963 420.695 215.481 419.217 215.481C417.74 215.481 416.31 214.964 415.174 214.02C414.664 213.548 414.26 212.974 413.987 212.334L413.527 212.53L413.987 212.334C413.714 211.691 413.58 210.997 413.595 210.299L413.596 210.289L413.596 210.279C413.578 209.292 413.882 208.326 414.46 207.525C415.001 206.805 415.767 206.286 416.637 206.051ZM414.878 209.788H414.783L414.782 210.287C414.78 211.039 414.978 211.779 415.355 212.429C415.642 213.147 416.192 213.73 416.894 214.056C417.576 214.426 418.339 214.624 419.115 214.633C419.682 214.659 420.248 214.567 420.777 214.362C421.304 214.158 421.783 213.847 422.184 213.448C422.614 213.062 422.953 212.585 423.177 212.052C423.401 211.518 423.503 210.941 423.477 210.362C423.468 209.219 423.009 208.125 422.199 207.318C421.795 206.887 421.303 206.548 420.755 206.326C420.209 206.104 419.622 206.003 419.034 206.029C418.464 206.023 417.9 206.133 417.375 206.354C416.845 206.576 416.366 206.905 415.97 207.321L415.97 207.321L415.966 207.324C415.593 207.724 415.303 208.194 415.115 208.707C414.987 209.056 414.907 209.419 414.878 209.788ZM415.282 210.292C415.282 210.296 415.282 210.3 415.282 210.304V210.788V210.292Z" fill="#1D1D1B" stroke="#202020"/>
<path d="M430.337 214.282L439.267 214.034V215.205H427.796C427.776 214.891 427.789 214.576 427.835 214.264C428.175 213.421 428.64 212.632 429.213 211.926C430.136 210.94 431.135 210.027 432.201 209.197C433.771 208.016 435.181 206.636 436.397 205.093C437.093 204.245 437.499 203.196 437.555 202.101C437.591 201.585 437.508 201.069 437.313 200.59L436.85 200.779L437.313 200.59C437.118 200.111 436.815 199.682 436.428 199.339C436.037 198.985 435.578 198.713 435.079 198.541C434.592 198.374 434.078 198.304 433.564 198.335C433.022 198.29 432.476 198.363 431.965 198.55C431.442 198.742 430.968 199.049 430.578 199.448C430.168 199.864 429.85 200.362 429.645 200.909C429.501 201.291 429.415 201.69 429.388 202.095H428.068C428.137 201.582 428.282 201.082 428.497 200.61C428.783 199.983 429.189 199.419 429.692 198.949C430.786 198.036 432.19 197.579 433.612 197.675L433.645 197.677L433.677 197.675C434.388 197.63 435.101 197.727 435.774 197.96C436.447 198.194 437.067 198.559 437.597 199.034L437.598 199.035C438.058 199.446 438.423 199.953 438.666 200.52C438.909 201.087 439.025 201.7 439.005 202.317L439.005 202.317L439.005 202.328C438.998 203.042 438.835 203.746 438.529 204.391L438.524 204.4L438.52 204.41C438.186 205.194 437.716 205.914 437.13 206.534C436.025 207.699 434.845 208.792 433.599 209.806C432.651 210.526 431.765 211.323 430.948 212.188C430.479 212.556 430.107 213.034 429.865 213.58L429.545 214.304L430.337 214.282Z" fill="#1D1D1B" stroke="#202020"/>
<path d="M445.915 206.053L447.594 205.659L445.964 205.094C445.212 204.834 444.542 204.382 444.018 203.784C443.53 202.988 443.332 202.047 443.458 201.122C443.586 200.185 444.038 199.323 444.736 198.685C445.72 197.816 447.003 197.36 448.316 197.414L448.342 197.415L448.367 197.413C449.016 197.374 449.666 197.466 450.279 197.683C450.892 197.901 451.454 198.24 451.933 198.681L451.939 198.686L451.945 198.691C452.391 199.076 452.748 199.554 452.989 200.092C453.231 200.629 453.353 201.213 453.345 201.802L453.345 201.806C453.342 202.426 453.18 203.033 452.875 203.569C452.64 203.575 452.406 203.619 452.183 203.698C451.855 203.814 451.559 204.005 451.317 204.255C451.075 204.506 450.895 204.809 450.79 205.14C450.686 205.472 450.66 205.823 450.714 206.167C450.75 206.394 450.82 206.613 450.922 206.817C450.651 206.622 450.357 206.459 450.046 206.332C449.504 206.112 448.921 206.008 448.336 206.028C447.763 206.01 447.192 206.115 446.662 206.337C446.131 206.56 445.654 206.895 445.264 207.319C444.876 207.708 444.572 208.172 444.367 208.682C444.162 209.195 444.063 209.744 444.076 210.296C444.086 211.03 444.251 211.754 444.56 212.42L444.56 212.42L444.565 212.43C444.91 213.133 445.477 213.702 446.179 214.05C446.862 214.435 447.634 214.636 448.418 214.632C448.981 214.647 449.541 214.549 450.065 214.346C450.593 214.142 451.074 213.836 451.481 213.444L451.481 213.444L451.488 213.437C451.892 213.035 452.207 212.552 452.413 212.02C452.616 211.494 452.709 210.932 452.684 210.369C452.697 209.81 452.6 209.254 452.398 208.733C452.272 208.407 452.107 208.099 451.906 207.815C452.205 207.969 452.535 208.054 452.872 208.063C453.071 208.069 453.27 208.048 453.462 208.002C453.876 208.711 454.08 209.527 454.046 210.353L454.045 210.372L454.045 210.392C454.07 211.07 453.948 211.746 453.689 212.373C453.43 213.001 453.039 213.565 452.542 214.029L452.542 214.029L452.539 214.032C451.996 214.55 451.353 214.952 450.65 215.214C449.947 215.476 449.198 215.592 448.448 215.556L448.42 215.554L448.393 215.556C447.63 215.604 446.866 215.493 446.148 215.231L445.976 215.7L446.148 215.231C445.43 214.969 444.774 214.561 444.222 214.033L444.22 214.031C443.717 213.555 443.322 212.976 443.062 212.334C442.802 211.691 442.684 211.001 442.715 210.309L442.716 210.287L442.715 210.266C442.675 209.295 442.946 208.337 443.488 207.53C444.12 206.793 444.969 206.276 445.915 206.053ZM444.776 201.549C444.774 202.491 445.137 203.397 445.789 204.077L445.789 204.077L445.796 204.084C446.141 204.432 446.556 204.702 447.014 204.878C447.464 205.052 447.946 205.129 448.428 205.106C448.895 205.121 449.361 205.039 449.796 204.866C450.234 204.69 450.631 204.425 450.961 204.088C451.306 203.76 451.576 203.362 451.753 202.921C451.928 202.483 452.007 202.014 451.985 201.543C452 201.075 451.918 200.609 451.745 200.175C451.568 199.733 451.3 199.334 450.958 199.002L450.958 199.002L450.956 199C450.274 198.348 449.366 197.985 448.422 197.987L448.42 197.987C447.483 197.995 446.584 198.354 445.9 198.992C445.542 199.314 445.256 199.708 445.062 200.148C444.868 200.589 444.771 201.067 444.776 201.549Z" fill="#1D1D1B" stroke="#202020"/>
<path d="M459.457 214.283L468.475 214.035V215.206H456.953C456.91 214.901 456.936 214.589 457.031 214.293C457.338 213.424 457.809 212.622 458.418 211.93C459.306 210.94 460.277 210.027 461.319 209.2C462.932 208.038 464.375 206.656 465.605 205.094C466.302 204.245 466.709 203.194 466.764 202.096L466.764 202.088L466.764 202.08C466.774 201.575 466.68 201.072 466.489 200.604L466.026 200.793L466.489 200.604C466.298 200.135 466.014 199.711 465.654 199.356L465.646 199.348L465.638 199.341C465.246 198.986 464.787 198.714 464.287 198.542C463.799 198.374 463.282 198.304 462.767 198.336C462.216 198.302 461.664 198.379 461.143 198.563C460.612 198.752 460.125 199.048 459.714 199.434L459.694 199.453L459.676 199.474C459.043 200.213 458.668 201.134 458.601 202.096H457.255C457.304 201.581 457.434 201.076 457.641 200.6C457.912 199.977 458.31 199.416 458.809 198.954C459.918 198.059 461.318 197.604 462.741 197.676L462.773 197.678L462.805 197.675C463.515 197.621 464.228 197.713 464.9 197.946C465.572 198.18 466.189 198.549 466.713 199.031L466.713 199.031L466.719 199.036C467.179 199.447 467.544 199.954 467.787 200.52C468.03 201.087 468.145 201.701 468.126 202.318L468.126 202.322C468.109 203.036 467.974 203.743 467.727 204.413C467.359 205.195 466.862 205.91 466.257 206.528L466.251 206.534L466.246 206.541C465.174 207.711 464.022 208.805 462.798 209.814L462.798 209.814L462.788 209.822L460.077 212.182L460.064 212.194L460.051 212.207C459.656 212.603 459.309 213.045 459.017 213.522L458.537 214.308L459.457 214.283Z" fill="#1D1D1B" stroke="#202020"/>
<path d="M475.026 206.057L476.813 205.664L475.075 205.093C474.345 204.853 473.704 204.402 473.231 203.796C472.738 202.998 472.537 202.053 472.664 201.123C472.791 200.19 473.241 199.33 473.935 198.692C474.953 197.862 476.228 197.408 477.543 197.408C478.856 197.408 480.129 197.861 481.147 198.69C481.568 199.088 481.902 199.569 482.128 200.101C482.357 200.64 482.471 201.219 482.464 201.804L482.464 201.819L482.465 201.834C482.499 202.533 482.287 203.222 481.866 203.781C481.409 204.381 480.79 204.838 480.081 205.099L478.598 205.644L480.125 206.051C481.06 206.301 481.881 206.864 482.45 207.646C483.02 208.429 483.303 209.383 483.252 210.349L483.251 210.364L483.251 210.379C483.256 211.059 483.125 211.734 482.865 212.362C482.606 212.989 482.225 213.558 481.743 214.035C481.186 214.554 480.529 214.956 479.813 215.218C479.095 215.48 478.331 215.595 477.568 215.557L477.543 215.556L477.518 215.557C476.769 215.594 476.02 215.477 475.316 215.215C474.613 214.954 473.971 214.552 473.428 214.034L473.426 214.033C472.923 213.556 472.528 212.977 472.268 212.335C472.009 211.693 471.89 211.002 471.921 210.31L471.922 210.289L471.921 210.267C471.881 209.293 472.154 208.331 472.701 207.523C473.281 206.778 474.103 206.259 475.026 206.057ZM480.687 213.445L480.687 213.445L480.694 213.439C481.098 213.036 481.413 212.553 481.619 212.022C481.823 211.494 481.916 210.929 481.89 210.363C481.887 209.215 481.429 208.115 480.617 207.302C479.804 206.49 478.703 206.033 477.555 206.03C476.976 206.003 476.399 206.106 475.865 206.33C475.332 206.553 474.855 206.892 474.468 207.322C474.082 207.711 473.777 208.174 473.573 208.683C473.37 209.191 473.271 209.735 473.282 210.282C473.249 211.029 473.418 211.771 473.77 212.43C474.092 213.153 474.669 213.732 475.392 214.055C476.071 214.446 476.844 214.646 477.628 214.634C478.189 214.648 478.748 214.55 479.271 214.348C479.799 214.144 480.28 213.837 480.687 213.445ZM480.077 199.178L480.076 199.178C479.396 198.522 478.488 198.155 477.543 198.155C476.602 198.155 475.698 198.518 475.019 199.168C474.68 199.464 474.411 199.831 474.232 200.244C474.053 200.655 473.968 201.101 473.982 201.549C473.97 202.017 474.053 202.482 474.225 202.917C474.4 203.357 474.663 203.757 474.998 204.092C475.333 204.426 475.733 204.689 476.173 204.863C476.604 205.034 477.065 205.117 477.529 205.107C478.005 205.143 478.482 205.07 478.925 204.893C479.366 204.716 479.762 204.441 480.081 204.089C480.413 203.796 480.676 203.433 480.853 203.026C481.032 202.616 481.117 202.171 481.103 201.723C481.119 201.254 481.038 200.787 480.863 200.351C480.687 199.909 480.419 199.51 480.077 199.178Z" fill="#1D1D1B" stroke="#202020"/>
<path d="M296.856 256.611L296.856 256.609C296.856 256.604 296.856 256.595 296.857 256.583C296.858 256.558 296.86 256.518 296.865 256.462C296.874 256.352 296.894 256.181 296.935 255.957C297.017 255.508 297.182 254.841 297.519 253.999L297.531 253.971L297.539 253.941L299.539 246.36H301.214L303.129 253.85L303.129 253.85L303.131 253.855L303.83 256.477L304.285 258.181L304.792 256.492L305.579 253.87L305.579 253.87L305.581 253.865L307.75 246.36H308.965L304.996 258.907H303.21L301.126 251.158L300.603 248.894L299.632 248.88L297.019 258.907H295.5L291.612 246.36H293L294.998 253.769L294.998 253.769L295.002 253.78L295.876 256.751L296.854 256.61C296.856 256.61 296.856 256.611 296.856 256.611ZM296.856 256.611L296.856 256.611L296.856 256.611L296.856 256.611Z" fill="#1D1D1B" stroke="#202020"/>
<path d="M315.744 256.611L315.744 256.609C315.744 256.604 315.744 256.595 315.744 256.583C315.746 256.558 315.748 256.518 315.753 256.462C315.762 256.352 315.782 256.181 315.823 255.957C315.905 255.508 316.07 254.841 316.407 253.999L316.418 253.973L316.425 253.946L318.51 246.36H319.927L321.842 253.85L321.842 253.85L321.844 253.855L322.543 256.477L322.998 258.182L323.505 256.492L324.292 253.87L324.292 253.87L326.546 246.36H328.377L324.409 258.907H322.714L320.714 251.16L320.19 248.894L319.22 248.877L316.522 258.907H314.475L310.588 246.36H311.891L313.974 253.77L314.76 256.738L315.742 256.61C315.744 256.61 315.744 256.611 315.744 256.611ZM315.744 256.611L315.744 256.611L315.744 256.611L315.744 256.611Z" fill="#1D1D1B" stroke="#202020"/>
<path d="M334.718 256.611L334.718 256.609C334.719 256.604 334.719 256.596 334.719 256.583C334.72 256.558 334.723 256.518 334.727 256.463C334.737 256.352 334.757 256.182 334.798 255.957C334.88 255.508 335.045 254.841 335.382 253.999L335.393 253.973L335.4 253.946L337.485 246.36H339.077L340.992 253.85L340.992 253.85L340.993 253.855L341.693 256.477L342.148 258.182L342.655 256.492L343.442 253.87L342.963 253.726L343.442 253.87L345.696 246.36H346.828L342.859 258.907H341.248L339.163 251.158L338.641 248.894L337.67 248.88L335.056 258.907H333.365L329.558 246.36H330.866L332.949 253.77L333.735 256.738L334.717 256.611C334.718 256.611 334.718 256.611 334.718 256.611ZM334.718 256.611L334.718 256.611L334.718 256.611L334.718 256.611Z" fill="#1D1D1B" stroke="#202020"/>
<path d="M349.149 258.907V257.285H350.773V258.907H349.149Z" fill="#1D1D1B" stroke="#202020"/>
<path d="M360.643 258.907L360.627 258.907L360.612 258.907C359.837 258.934 359.066 258.798 358.348 258.508C357.636 258.221 356.991 257.789 356.456 257.239C355.341 255.869 354.791 254.125 354.919 252.364L354.921 252.343L354.92 252.323C354.909 251.074 355.134 249.834 355.584 248.668C355.98 247.72 356.701 246.944 357.619 246.481L357.636 246.472L357.653 246.462C358.546 245.92 359.575 245.642 360.62 245.661L360.632 245.661L360.644 245.66C361.817 245.625 362.966 245.988 363.905 246.69C364.621 247.281 365.144 248.066 365.417 248.944H364.189C363.997 248.198 363.567 247.531 362.959 247.047C362.335 246.514 361.538 246.225 360.717 246.234C360.121 246.225 359.53 246.344 358.984 246.583C358.436 246.823 357.945 247.178 357.546 247.624L357.532 247.639L357.52 247.655C356.599 248.866 356.158 250.374 356.28 251.89C356.151 253.413 356.553 254.934 357.419 256.194L357.435 256.218L357.455 256.24C357.84 256.68 358.315 257.032 358.848 257.273C359.377 257.512 359.951 257.635 360.531 257.635C361.486 257.677 362.42 257.352 363.143 256.726L363.143 256.726L363.152 256.717C363.697 256.22 364.12 255.607 364.392 254.925H365.707C365.441 255.993 364.87 256.966 364.058 257.721C363.104 258.52 361.888 258.942 360.643 258.907Z" fill="#1D1D1B" stroke="#202020"/>
<path d="M379.629 252.352H369.985H369.499L369.486 252.838C369.448 254.213 369.929 255.552 370.833 256.589L370.833 256.589L370.837 256.594C371.247 257.053 371.753 257.416 372.32 257.656C372.881 257.894 373.488 258.006 374.097 257.985C374.944 258.009 375.778 257.764 376.477 257.285L376.477 257.285L376.485 257.279C377.131 256.817 377.67 256.222 378.066 255.537H379.445C379.094 256.447 378.506 257.251 377.738 257.865C376.657 258.565 375.392 258.928 374.103 258.907L374.09 258.907L374.077 258.907C373.274 258.937 372.474 258.803 371.726 258.512C370.989 258.225 370.317 257.793 369.751 257.242C368.695 255.821 368.125 254.098 368.125 252.328C368.125 250.551 368.699 248.823 369.761 247.399C370.274 246.821 370.91 246.365 371.622 246.063C372.34 245.76 373.117 245.622 373.896 245.66L373.919 245.661L373.941 245.66C374.701 245.629 375.458 245.764 376.161 246.053C376.859 246.34 377.488 246.774 378.004 247.325C379.125 248.703 379.703 250.444 379.63 252.219L379.629 252.23V252.24V252.352ZM369.661 251.366L369.66 251.866H370.161H377.768H378.294L378.268 251.341C378.216 250.313 377.884 249.318 377.308 248.465L377.295 248.445L377.281 248.427C376.884 247.943 376.381 247.556 375.811 247.297C375.245 247.04 374.628 246.916 374.007 246.933C373.458 246.921 372.913 247.02 372.403 247.224C371.891 247.429 371.425 247.736 371.034 248.125C370.6 248.546 370.256 249.049 370.02 249.605C369.783 250.162 369.661 250.761 369.661 251.366Z" fill="#1D1D1B" stroke="#202020"/>
<path d="M385.136 252.366V258.907H383.513V246.36H384.524V247.87L385.471 248.095C385.803 247.435 386.257 246.844 386.808 246.352C387.169 246.139 387.579 246.022 387.998 246.01C388.615 246.025 389.217 246.194 389.749 246.499L389.307 247.678C388.871 247.484 388.399 247.378 387.919 247.37L387.919 247.37L387.905 247.37C387.278 247.376 386.673 247.601 386.195 248.007C385.718 248.379 385.359 248.883 385.163 249.456L385.149 249.498L385.143 249.541C384.996 250.477 384.994 251.43 385.136 252.366Z" fill="#1D1D1B" stroke="#202020"/>
<path d="M392.521 242.906L393.794 242.122V246.035V246.535H394.294H396.068V247.283H394.294H393.794V247.783V255.7C393.727 256.171 393.729 256.651 393.8 257.122L393.813 257.206L393.852 257.281C393.998 257.556 394.223 257.781 394.498 257.926L394.608 257.984H394.732H395.519H395.537L395.554 257.983L396.243 257.934V258.957C395.85 258.982 395.455 258.967 395.065 258.912L394.969 258.898L394.875 258.921C394.343 259.052 393.788 259.057 393.254 258.937C392.967 258.767 392.736 258.515 392.592 258.214C392.469 257.389 392.473 256.55 392.602 255.726L392.608 255.688V255.649V247.783V247.283H392.108H390.772V246.535H392.021H392.521V246.035V242.906Z" fill="#1D1D1B" stroke="#202020"/>
<path d="M405.227 254.891C405.361 254.562 405.503 254.212 405.61 253.892L408.373 246.36H409.665L404.762 259.483L403.46 262.519C403.173 263.094 402.754 263.593 402.236 263.974C401.755 264.268 401.201 264.421 400.637 264.414L399.517 264.228V262.966H400.264C400.732 263.084 401.222 263.078 401.688 262.948L401.736 262.934L401.781 262.911C402.174 262.71 402.509 262.412 402.755 262.046L402.777 262.013L402.794 261.978C403.066 261.392 403.306 260.791 403.513 260.18L403.54 260.101V260.019V259.495V259.403L403.507 259.318L398.604 246.36H400.064L402.744 253.894L402.744 253.894L402.746 253.901C403.124 254.91 403.439 255.941 403.69 256.989L404.677 256.872C404.677 256.44 404.803 255.984 404.994 255.475C405.062 255.296 405.143 255.097 405.227 254.891Z" fill="#1D1D1B" stroke="#202020"/>
<path d="M415.107 246.358H417.231V247.106H415.107H414.607V247.606V258.905H413.159V247.606V247.106H412.659H411.147V246.358H412.659H413.159V245.858V244.372V244.329L413.151 244.287C413.048 243.693 413.045 243.087 413.144 242.493C413.333 242 413.681 241.584 414.133 241.31C414.767 240.961 415.488 240.802 416.21 240.851L416.227 240.852H416.244H417.843V241.95H417.049C416.402 241.905 415.76 242.096 415.243 242.488L415.187 242.53L415.145 242.586C414.716 243.157 414.523 243.87 414.607 244.578V245.858V246.358H415.107Z" fill="#1D1D1B" stroke="#202020"/>
<path d="M419.981 242.825V241.203H421.255V242.825H419.981ZM419.981 258.907V246.36H421.255V258.907H419.981Z" fill="#1D1D1B" stroke="#202020"/>
<path d="M427.374 254.25V259.047L425.75 258.939V241.203H427.111V251.366V252.586L427.968 251.717L433.243 246.36H434.769L430.5 250.482L430.203 250.768L430.428 251.114L435.61 259.082H434.265L429.866 252.402L429.528 251.89L429.095 252.323L427.52 253.896L427.374 254.043V254.25Z" fill="#1D1D1B" stroke="#202020"/>
<path d="M447.742 257.956L446.965 257.366C446.244 257.977 445.438 258.479 444.57 258.854C443.813 259.118 443.017 259.255 442.215 259.257L442.197 259.257L442.178 259.258C441.629 259.3 441.077 259.232 440.554 259.058C440.033 258.884 439.551 258.608 439.137 258.246C438.799 257.943 438.529 257.571 438.347 257.155L437.889 257.356L438.347 257.155C438.165 256.738 438.074 256.287 438.082 255.832L438.083 255.779L438.072 255.727C437.971 255.214 437.965 254.687 438.056 254.173C438.325 253.75 438.674 253.384 439.083 253.094C439.538 252.81 440.035 252.6 440.555 252.471C441.175 252.402 441.801 252.403 442.421 252.475L442.48 252.482L442.539 252.474C443.975 252.299 445.398 252.033 446.8 251.676L447.176 251.58V251.192V250.603C447.215 250.174 447.162 249.741 447.02 249.334C446.875 248.918 446.642 248.539 446.336 248.222L446.309 248.194L446.278 248.171C445.441 247.539 444.407 247.224 443.361 247.282C442.423 247.203 441.486 247.45 440.71 247.982L440.698 247.99L440.687 247.999C440.32 248.282 440.013 248.636 439.785 249.039C439.631 249.311 439.515 249.603 439.439 249.905H438.207C438.365 249.357 438.609 248.836 438.932 248.363C439.45 247.834 440.09 247.438 440.796 247.21L440.805 247.207L440.813 247.204C441.738 246.869 442.715 246.701 443.699 246.71L443.706 246.71L443.713 246.71C444.606 246.692 445.495 246.831 446.339 247.12L446.353 247.125L446.367 247.129C446.915 247.281 447.406 247.59 447.78 248.017C448.085 248.397 448.287 248.849 448.366 249.33C448.424 249.993 448.423 250.66 448.364 251.322L448.362 251.344V251.367V253.973C448.278 255.356 448.279 256.744 448.363 258.127L448.365 258.155L448.37 258.182C448.429 258.519 448.516 258.849 448.629 259.169H447.483C447.478 258.753 447.566 258.338 447.742 257.956ZM447.752 252.404L447.57 251.947L447.11 252.123C445.919 252.578 444.67 252.861 443.4 252.966L443.367 252.968L443.334 252.975L441.323 253.412L441.272 253.423L441.225 253.445C440.763 253.652 440.378 253.999 440.123 254.436L440.086 254.5L440.069 254.571C439.965 255.004 439.961 255.454 440.057 255.888C440.07 256.222 440.151 256.551 440.294 256.854C440.444 257.174 440.66 257.458 440.929 257.689L440.938 257.697L440.948 257.705C441.636 258.239 442.501 258.495 443.369 258.422C444.274 258.443 445.166 258.211 445.947 257.753C446.73 257.387 447.344 256.735 447.662 255.931C448.013 255.15 448.176 254.297 448.138 253.442L448.134 253.357L448.102 253.278L447.752 252.404Z" fill="#1D1D1B" stroke="#202020"/>
<path d="M456.23 257.984L457.543 257.921V258.957C457.15 258.982 456.755 258.968 456.364 258.912L456.271 258.899L456.179 258.92C455.644 259.046 455.089 259.051 454.552 258.936C454.266 258.766 454.036 258.515 453.892 258.214C453.769 257.389 453.773 256.55 453.902 255.726L453.908 255.688V255.649V247.783V247.283H453.408H451.984V246.535H453.146H453.646V246.035V242.906L454.92 242.122V246.035V246.535H455.42H457.281V247.283H455.42H454.92V247.783V255.691C454.841 256.13 454.837 256.578 454.907 257.019C454.858 257.232 454.874 257.456 454.953 257.663L455.076 257.984H455.42H456.207H456.218L456.23 257.984Z" fill="#1D1D1B" stroke="#202020"/>
<path d="M461.429 258.907V257.285H463.053V258.907H461.429Z" fill="#1D1D1B" stroke="#202020"/>
<path d="M468.426 242.906L469.699 242.122V246.035V246.535H470.199H471.973V247.283H470.199H469.699V247.783V255.7C469.636 256.144 469.634 256.594 469.693 257.039C469.666 257.221 469.672 257.407 469.71 257.588L469.795 257.984H470.199H470.986H471L471.014 257.983L472.06 257.925V258.957C471.667 258.982 471.272 258.967 470.882 258.912L470.786 258.898L470.692 258.921C470.16 259.052 469.605 259.057 469.072 258.937C468.784 258.767 468.554 258.515 468.41 258.214C468.287 257.389 468.29 256.55 468.42 255.726L468.426 255.688V255.649V247.783V247.283H467.926H466.677V246.535H467.926H468.426V246.035V242.906Z" fill="#1D1D1B" stroke="#202020"/>
<path d="M484.253 258.797V257.397V255.64L483.327 257.134C482.922 257.789 482.354 258.329 481.679 258.7C481.003 259.072 480.243 259.264 479.472 259.257L479.469 259.257C478.755 259.255 478.047 259.119 477.383 258.857C476.848 258.63 476.38 258.268 476.027 257.806C475.736 257.367 475.528 256.878 475.416 256.364C475.365 255.673 475.366 254.979 475.419 254.289L475.42 254.27V254.25V246.01H476.694V253.008C476.632 253.842 476.633 254.678 476.695 255.512L476.699 255.564L476.714 255.614C476.907 256.274 477.306 256.854 477.853 257.27L477.853 257.271L477.864 257.278C478.46 257.707 479.181 257.925 479.914 257.897C480.677 257.897 481.425 257.692 482.081 257.304C482.731 256.927 483.255 256.369 483.588 255.696L483.62 255.632L483.633 255.56C483.797 254.621 483.8 253.661 483.64 252.722V246.01H485.002V258.647L484.253 258.797Z" fill="#1D1D1B" stroke="#202020"/>
<path d="M494.72 256.861L495.593 254.329L498.446 246.36H499.817L495.039 258.907H493.542L488.764 246.36H490.134L492.901 254.156L492.904 254.162L492.906 254.169C493.243 255.037 493.529 255.923 493.763 256.823L494.18 258.427L494.72 256.861Z" fill="#1D1D1B" stroke="#202020"/>
<path d="M502.18 253.488V252.128H508.263V253.488H502.18Z" fill="#1D1D1B" stroke="#202020"/>
<path d="M513.248 252.007V258.907H511.8V246.36H512.898V247.782V249.539L513.823 248.046C514.226 247.397 514.793 246.866 515.468 246.508C516.142 246.151 516.9 245.978 517.663 246.01L517.663 246.01L517.677 246.01C518.392 246.019 519.1 246.154 519.767 246.41C520.28 246.634 520.741 246.963 521.12 247.374C521.381 247.864 521.587 248.382 521.736 248.918C521.79 249.632 521.789 250.35 521.732 251.064L521.731 251.084V251.104V258.907H520.457V251.233C520.58 250.496 520.578 249.744 520.449 249.008L520.442 248.966L520.428 248.927C520.217 248.329 519.795 247.829 519.24 247.521C518.659 247.19 518.001 247.018 517.332 247.02V247.02L517.324 247.02C516.277 247.04 515.27 247.422 514.473 248.101L514.443 248.127L514.417 248.158C513.965 248.689 513.628 249.308 513.428 249.976C513.23 250.634 513.169 251.325 513.248 252.007Z" fill="#1D1D1B" stroke="#202020"/>
<path d="M525.528 252.706L525.53 252.669L525.527 252.632C525.442 251.677 525.573 250.715 525.91 249.817C526.246 248.921 526.778 248.113 527.467 247.45C528.548 246.489 529.954 245.974 531.401 246.009L531.415 246.01L531.43 246.009C532.204 245.982 532.976 246.119 533.694 246.409C534.411 246.698 535.059 247.134 535.597 247.689C536.18 248.318 536.631 249.057 536.923 249.864C537.216 250.671 537.343 251.53 537.297 252.388L537.296 252.412L537.297 252.436C537.355 253.792 537.103 255.144 536.56 256.389C536.075 257.273 535.331 257.987 534.427 258.434L534.414 258.44L534.401 258.447C533.253 259.1 531.926 259.367 530.615 259.206C529.312 259.047 528.095 258.476 527.142 257.577C526 256.22 525.423 254.477 525.528 252.706ZM528.13 256.826L528.138 256.837L528.147 256.848C528.551 257.319 529.054 257.695 529.618 257.952C530.18 258.207 530.79 258.337 531.407 258.333C532.019 258.351 532.627 258.225 533.181 257.965C533.738 257.704 534.226 257.315 534.605 256.83L534.605 256.83L534.609 256.825C535.53 255.613 535.972 254.105 535.849 252.589C535.966 251.099 535.523 249.618 534.606 248.437L534.605 248.436C534.226 247.95 533.738 247.561 533.181 247.3C532.627 247.041 532.019 246.914 531.407 246.932C530.79 246.929 530.18 247.059 529.618 247.314C529.053 247.57 528.551 247.947 528.147 248.418L528.138 248.429L528.129 248.441C527.207 249.653 526.766 251.162 526.888 252.679C526.78 254.166 527.222 255.642 528.13 256.826Z" fill="#1D1D1B" stroke="#202020"/>
<path d="M542.627 252.366V258.907H540.917V246.36H542.015V247.87L542.962 248.095C543.295 247.433 543.75 246.84 544.304 246.348C544.655 246.127 545.062 246.01 545.478 246.01C546.097 246.036 546.699 246.206 547.237 246.505L546.793 247.689C546.33 247.49 545.831 247.38 545.324 247.37L545.324 247.37L545.311 247.37C544.711 247.373 544.134 247.598 543.69 248.001C543.173 248.355 542.801 248.885 542.643 249.493L542.637 249.516L542.633 249.541C542.486 250.477 542.484 251.43 542.627 252.366Z" fill="#1D1D1B" stroke="#202020"/>
<path d="M558.408 247.433V241.203H559.682V258.907H558.496V257.746V256.004L557.572 257.481C557.221 258.041 556.73 258.499 556.148 258.811C555.565 259.122 554.911 259.276 554.25 259.256L554.25 259.256L554.24 259.256C553.281 259.247 552.343 258.971 551.531 258.46C550.673 257.909 550.008 257.106 549.627 256.161L549.622 256.146L549.615 256.133C549.103 255.057 548.85 253.878 548.876 252.688L548.877 252.673L548.876 252.659C548.832 251.443 549.057 250.233 549.536 249.115L549.536 249.115L549.539 249.107C549.916 248.181 550.549 247.382 551.363 246.802C552.203 246.291 553.167 246.017 554.151 246.01C554.828 246.007 555.496 246.166 556.098 246.475C556.653 246.783 557.132 247.21 557.502 247.725L558.408 248.984V247.433ZM550.236 252.67C550.1 254.162 550.544 255.65 551.476 256.824C551.81 257.287 552.249 257.664 552.756 257.926C553.266 258.19 553.832 258.33 554.407 258.333L554.409 258.333C554.983 258.334 555.55 258.209 556.07 257.967L555.858 257.514L556.07 257.967C556.589 257.724 557.05 257.37 557.417 256.93L557.429 256.916L557.44 256.901C558.283 255.727 558.688 254.296 558.585 252.855C558.718 251.286 558.28 249.721 557.35 248.449L557.35 248.448L557.345 248.442C556.996 247.982 556.546 247.609 556.03 247.352C555.513 247.095 554.944 246.962 554.367 246.962C553.79 246.962 553.22 247.095 552.704 247.352C552.187 247.609 551.737 247.982 551.388 248.442L551.38 248.453L551.372 248.465C550.542 249.705 550.143 251.182 550.236 252.67Z" fill="#1D1D1B" stroke="#202020"/>
<path d="M564.964 258.907V257.285H566.587V258.907H564.964Z" fill="#1D1D1B" stroke="#202020"/>
<path d="M573.633 247.876C574.004 247.295 574.511 246.814 575.111 246.474C575.734 246.15 576.43 245.99 577.132 246.01L577.132 246.01L577.142 246.01C578.127 246.017 579.091 246.291 579.932 246.802C580.745 247.381 581.377 248.18 581.754 249.105C582.181 250.189 582.406 251.342 582.418 252.507L582.418 252.51C582.436 253.731 582.183 254.941 581.676 256.053L581.676 256.053L581.671 256.064C581.254 257.04 580.561 257.872 579.677 258.459C578.855 258.953 577.919 259.227 576.96 259.256C576.315 259.266 575.679 259.107 575.114 258.794L575.092 258.782L575.068 258.772C574.554 258.553 574.114 258.19 573.8 257.728L572.886 256.38V258.008V264.151H571.612V246.36H572.711V247.607V249.321L573.633 247.876ZM573.846 256.89L573.859 256.908L573.873 256.926C574.226 257.359 574.671 257.711 575.175 257.954C575.679 258.197 576.23 258.327 576.79 258.334L576.793 258.334C577.381 258.338 577.963 258.202 578.489 257.939C579.015 257.677 579.471 257.293 579.821 256.821C580.746 255.579 581.186 254.043 581.058 252.501C581.175 251.015 580.734 249.54 579.823 248.36C579.493 247.89 579.054 247.507 578.544 247.243C578.03 246.977 577.459 246.841 576.88 246.845L576.88 246.845L576.871 246.845C576.277 246.861 575.696 247.015 575.172 247.294C574.648 247.573 574.196 247.97 573.853 248.454L573.853 248.454L573.846 248.463C573.008 249.702 572.608 251.185 572.71 252.677C572.608 254.168 573.008 255.651 573.846 256.89Z" fill="#1D1D1B" stroke="#202020"/>
<path d="M586.129 258.907V241.203H587.403V258.907H586.129Z" fill="#1D1D1B" stroke="#202020"/>
</svg>
