<svg width="36" height="25" viewBox="0 0 36 25" fill="none" xmlns="http://www.w3.org/2000/svg">
<path d="M35.2325 3.90405C35.0277 3.14711 34.6258 2.45692 34.0671 1.90274C33.5085 1.34856 32.8127 0.949881 32.0497 0.74671C29.2433 2.52325e-06 17.9852 0 17.9852 0C17.9852 0 6.72407 2.52325e-06 3.92065 0.74671C3.16035 0.952126 2.46768 1.3518 1.91178 1.90583C1.35589 2.45987 0.956236 3.14887 0.752717 3.90405C2.82617e-07 6.69097 0 12.5 0 12.5C0 12.5 2.82617e-07 18.312 0.752717 21.096C0.956973 21.8532 1.35868 22.5436 1.9174 23.0979C2.47613 23.6522 3.17216 24.0507 3.93546 24.2533C6.74185 25 18 25 18 25C18 25 29.2611 25 32.0645 24.2533C32.8278 24.0507 33.5239 23.6522 34.0826 23.0979C34.6413 22.5436 35.043 21.8532 35.2473 21.096C36 18.312 36 12.5 36 12.5C36 12.5 35.9852 6.69097 35.2325 3.90405ZM14.3846 17.8563V7.1437L23.7372 12.5L14.3846 17.8563Z" fill="#202020"/>
</svg>
